<svg viewBox="0 0 24 24" color="textSubtle" width="20px" xmlns="http://www.w3.org/2000/svg" class="sc-bdnxRM fEEbyN"><path fill-rule="evenodd" clip-rule="evenodd" d="M12.296 4.087a.78.78 0 00-.71-.003L7.629 6.08a.78.78 0 00-.429.696v9.755c0 .288.16.553.414.689l3.963 2.107a.78.78 0 00.725.004l4.077-2.11a.78.78 0 00.421-.694V6.893a.78.78 0 00-.421-.692l-4.083-2.114zm-.44.532a.18.18 0 01.164.001l4.083 2.114a.18.18 0 01.064.055.18.18 0 01-.066.056l-3.957 1.997a.18.18 0 01-.164 0L7.897 6.727a.18.18 0 01-.063-.055.18.18 0 01.065-.056l3.957-1.998zM7.8 7.353v4.087-.586l3.424-1.728L7.8 7.353zm0 4.86v4.319a.18.18 0 00.096.159l3.963 2.107a.18.18 0 00.167 0l4.077-2.11a.18.18 0 00.097-.16V11.74v.587l-3.786 1.91a.78.78 0 01-.71-.003L7.8 12.213zm8.4-1.245V6.893v.574l-3.424 1.728 3.424 1.773zm-8.303.62a.18.18 0 01-.063-.056.181.181 0 01.065-.056L11.7 9.558v3.998l-3.803-1.968zm4.403 2.035V9.624l3.803 1.969a.18.18 0 01.064.055.18.18 0 01-.066.057l-3.8 1.918z"></path><path d="M17.125 4.978l-.367-.19-.276.532.367.19c.338.176.55.525.55.906v.495h.6v-.495a1.62 1.62 0 00-.874-1.438zM7.242 18.544l-.367-.19A1.62 1.62 0 016 16.915v-.494h.6v.494c0 .381.212.73.55.906l.368.19-.276.533z"></path></svg>