<?xml version="1.0" encoding="UTF-8" standalone="no"?><!-- Generator: Gravit.io --><svg xmlns="http://www.w3.org/2000/svg" xmlns:xlink="http://www.w3.org/1999/xlink" style="isolation:isolate" viewBox="518 333.487 493.45 431.513" width="493.45pt" height="431.513pt"><defs><clipPath id="_clipPath_1If1ah19mYCm8Vp2ps8Gllai2CWm4rgI"><rect x="518" y="333.487" width="493.45" height="431.513"/></clipPath></defs><g clip-path="url(#_clipPath_1If1ah19mYCm8Vp2ps8Gllai2CWm4rgI)"><path d=" M 793.752 333.487 L 735.693 333.487 L 764.725 383.756 L 793.752 333.487 L 793.752 333.487 L 793.752 333.487 L 793.752 333.487 L 793.752 333.487 L 793.752 333.487 L 793.752 333.487 L 793.752 333.487 L 793.752 333.487 L 793.752 333.487 L 793.752 333.487 L 793.752 333.487 L 793.752 333.487 L 793.752 333.487 L 793.752 333.487 L 793.752 333.487 L 793.752 333.487 L 793.752 333.487 L 793.752 333.487 L 793.752 333.487 L 793.752 333.487 L 793.752 333.487 L 793.752 333.487 L 793.752 333.487 L 793.752 333.487 L 793.752 333.487 L 793.752 333.487 L 793.752 333.487 L 793.752 333.487 L 793.752 333.487 L 793.752 333.487 L 793.752 333.487 L 793.752 333.487 L 793.752 333.487 L 793.752 333.487 L 793.752 333.487 L 793.752 333.487 L 793.752 333.487 L 793.752 333.487 L 793.752 333.487 L 793.752 333.487 L 793.752 333.487 L 793.752 333.487 L 793.752 333.487 L 793.752 333.487 L 793.752 333.487 L 793.752 333.487 L 793.752 333.487 L 793.752 333.487 L 793.752 333.487 L 793.752 333.487 L 793.752 333.487 L 793.752 333.487 L 793.752 333.487 L 793.752 333.487 L 793.752 333.487 L 793.752 333.487 L 793.752 333.487 L 793.752 333.487 Z  M 938.874 459.16 L 880.834 459.16 L 909.855 509.44 L 938.874 459.16 L 938.874 459.16 L 938.874 459.16 L 938.874 459.16 L 938.874 459.16 L 938.874 459.16 L 938.874 459.16 L 938.874 459.16 L 938.874 459.16 L 938.874 459.16 L 938.874 459.16 L 938.874 459.16 L 938.874 459.16 L 938.874 459.16 L 938.874 459.16 L 938.874 459.16 L 938.874 459.16 L 938.874 459.16 L 938.874 459.16 L 938.874 459.16 L 938.874 459.16 L 938.874 459.16 L 938.874 459.16 L 938.874 459.16 L 938.874 459.16 L 938.874 459.16 L 938.874 459.16 L 938.874 459.16 L 938.874 459.16 L 938.874 459.16 L 938.874 459.16 L 938.874 459.16 L 938.874 459.16 L 938.874 459.16 L 938.874 459.16 L 938.874 459.16 L 938.874 459.16 L 938.874 459.16 L 938.874 459.16 L 938.874 459.16 L 938.874 459.16 L 938.874 459.16 L 938.874 459.16 L 938.874 459.16 L 938.874 459.16 L 938.874 459.16 L 938.874 459.16 L 938.874 459.16 L 938.874 459.16 L 938.874 459.16 L 938.874 459.16 L 938.874 459.16 L 938.874 459.16 L 938.874 459.16 L 938.874 459.16 L 938.874 459.16 L 938.874 459.16 L 938.874 459.16 L 938.874 459.16 Z  M 837.292 509.44 L 866.324 459.16 L 808.274 459.16 L 837.292 509.44 L 837.292 509.44 L 837.292 509.44 L 837.292 509.44 L 837.292 509.44 L 837.292 509.44 L 837.292 509.44 L 837.292 509.44 L 837.292 509.44 L 837.292 509.44 L 837.292 509.44 L 837.292 509.44 L 837.292 509.44 L 837.292 509.44 L 837.292 509.44 L 837.292 509.44 L 837.292 509.44 L 837.292 509.44 L 837.292 509.44 L 837.292 509.44 L 837.292 509.44 L 837.292 509.44 L 837.292 509.44 L 837.292 509.44 L 837.292 509.44 L 837.292 509.44 L 837.292 509.44 L 837.292 509.44 L 837.292 509.44 L 837.292 509.44 L 837.292 509.44 L 837.292 509.44 L 837.292 509.44 L 837.292 509.44 L 837.292 509.44 L 837.292 509.44 L 837.292 509.44 L 837.292 509.44 L 837.292 509.44 L 837.292 509.44 L 837.292 509.44 L 837.292 509.44 L 837.292 509.44 L 837.292 509.44 L 837.292 509.44 L 837.292 509.44 L 837.292 509.44 L 837.292 509.44 L 837.292 509.44 L 837.292 509.44 L 837.292 509.44 L 837.292 509.44 L 837.292 509.44 L 837.292 509.44 L 837.292 509.44 L 837.292 509.44 L 837.292 509.44 L 837.292 509.44 Z  M 764.725 509.44 L 793.752 459.16 L 735.693 459.16 L 764.725 509.44 L 764.725 509.44 L 764.725 509.44 L 764.725 509.44 L 764.725 509.44 L 764.725 509.44 L 764.725 509.44 L 764.725 509.44 L 764.725 509.44 L 764.725 509.44 L 764.725 509.44 L 764.725 509.44 L 764.725 509.44 L 764.725 509.44 L 764.725 509.44 L 764.725 509.44 L 764.725 509.44 L 764.725 509.44 L 764.725 509.44 L 764.725 509.44 L 764.725 509.44 L 764.725 509.44 L 764.725 509.44 L 764.725 509.44 L 764.725 509.44 L 764.725 509.44 L 764.725 509.44 L 764.725 509.44 L 764.725 509.44 L 764.725 509.44 L 764.725 509.44 L 764.725 509.44 L 764.725 509.44 L 764.725 509.44 L 764.725 509.44 L 764.725 509.44 L 764.725 509.44 L 764.725 509.44 L 764.725 509.44 L 764.725 509.44 L 764.725 509.44 L 764.725 509.44 L 764.725 509.44 L 764.725 509.44 L 764.725 509.44 L 764.725 509.44 L 764.725 509.44 L 764.725 509.44 L 764.725 509.44 L 764.725 509.44 L 764.725 509.44 L 764.725 509.44 L 764.725 509.44 L 764.725 509.44 L 764.725 509.44 L 764.725 509.44 L 764.725 509.44 Z  M 692.162 509.44 L 721.183 459.16 L 663.124 459.16 L 692.162 509.44 L 692.162 509.44 L 692.162 509.44 L 692.162 509.44 L 692.162 509.44 L 692.162 509.44 L 692.162 509.44 L 692.162 509.44 L 692.162 509.44 L 692.162 509.44 L 692.162 509.44 L 692.162 509.44 L 692.162 509.44 L 692.162 509.44 L 692.162 509.44 L 692.162 509.44 L 692.162 509.44 L 692.162 509.44 L 692.162 509.44 L 692.162 509.44 L 692.162 509.44 L 692.162 509.44 L 692.162 509.44 L 692.162 509.44 L 692.162 509.44 L 692.162 509.44 L 692.162 509.44 L 692.162 509.44 L 692.162 509.44 L 692.162 509.44 L 692.162 509.44 L 692.162 509.44 L 692.162 509.44 L 692.162 509.44 L 692.162 509.44 L 692.162 509.44 L 692.162 509.44 L 692.162 509.44 L 692.162 509.44 L 692.162 509.44 L 692.162 509.44 L 692.162 509.44 L 692.162 509.44 L 692.162 509.44 L 692.162 509.44 L 692.162 509.44 L 692.162 509.44 L 692.162 509.44 L 692.162 509.44 L 692.162 509.44 L 692.162 509.44 L 692.162 509.44 L 692.162 509.44 L 692.162 509.44 L 692.162 509.44 L 692.162 509.44 Z  M 648.62 459.16 L 590.576 459.16 L 619.588 509.44 L 648.62 459.16 L 648.62 459.16 L 648.62 459.16 L 648.62 459.16 L 648.62 459.16 L 648.62 459.16 L 648.62 459.16 L 648.62 459.16 L 648.62 459.16 L 648.62 459.16 L 648.62 459.16 L 648.62 459.16 L 648.62 459.16 L 648.62 459.16 L 648.62 459.16 L 648.62 459.16 L 648.62 459.16 L 648.62 459.16 L 648.62 459.16 L 648.62 459.16 L 648.62 459.16 L 648.62 459.16 L 648.62 459.16 L 648.62 459.16 L 648.62 459.16 L 648.62 459.16 L 648.62 459.16 L 648.62 459.16 L 648.62 459.16 L 648.62 459.16 L 648.62 459.16 L 648.62 459.16 L 648.62 459.16 L 648.62 459.16 L 648.62 459.16 L 648.62 459.16 L 648.62 459.16 L 648.62 459.16 L 648.62 459.16 L 648.62 459.16 L 648.62 459.16 L 648.62 459.16 L 648.62 459.16 L 648.62 459.16 L 648.62 459.16 L 648.62 459.16 L 648.62 459.16 L 648.62 459.16 L 648.62 459.16 L 648.62 459.16 L 648.62 459.16 L 648.62 459.16 L 648.62 459.16 L 648.62 459.16 L 648.62 459.16 Z  M 583.326 463.348 L 554.288 513.627 L 612.334 513.627 L 583.326 463.348 L 583.326 463.348 L 583.326 463.348 L 583.326 463.348 L 583.326 463.348 L 583.326 463.348 L 583.326 463.348 L 583.326 463.348 L 583.326 463.348 L 583.326 463.348 L 583.326 463.348 L 583.326 463.348 L 583.326 463.348 L 583.326 463.348 L 583.326 463.348 L 583.326 463.348 L 583.326 463.348 L 583.326 463.348 L 583.326 463.348 L 583.326 463.348 L 583.326 463.348 L 583.326 463.348 L 583.326 463.348 L 583.326 463.348 L 583.326 463.348 L 583.326 463.348 L 583.326 463.348 L 583.326 463.348 L 583.326 463.348 L 583.326 463.348 L 583.326 463.348 L 583.326 463.348 L 583.326 463.348 L 583.326 463.348 L 583.326 463.348 L 583.326 463.348 L 583.326 463.348 L 583.326 463.348 L 583.326 463.348 L 583.326 463.348 L 583.326 463.348 L 583.326 463.348 L 583.326 463.348 L 583.326 463.348 L 583.326 463.348 L 583.326 463.348 L 583.326 463.348 L 583.326 463.348 L 583.326 463.348 L 583.326 463.348 L 583.326 463.348 L 583.326 463.348 L 583.326 463.348 L 583.326 463.348 Z  M 699.431 513.627 L 757.456 513.627 L 728.45 463.348 L 699.431 513.627 L 699.431 513.627 L 699.431 513.627 L 699.431 513.627 L 699.431 513.627 L 699.431 513.627 L 699.431 513.627 L 699.431 513.627 L 699.431 513.627 L 699.431 513.627 L 699.431 513.627 L 699.431 513.627 L 699.431 513.627 L 699.431 513.627 L 699.431 513.627 L 699.431 513.627 L 699.431 513.627 L 699.431 513.627 L 699.431 513.627 L 699.431 513.627 L 699.431 513.627 L 699.431 513.627 L 699.431 513.627 L 699.431 513.627 L 699.431 513.627 L 699.431 513.627 L 699.431 513.627 L 699.431 513.627 L 699.431 513.627 L 699.431 513.627 L 699.431 513.627 L 699.431 513.627 L 699.431 513.627 L 699.431 513.627 L 699.431 513.627 L 699.431 513.627 L 699.431 513.627 L 699.431 513.627 L 699.431 513.627 L 699.431 513.627 L 699.431 513.627 L 699.431 513.627 L 699.431 513.627 L 699.431 513.627 L 699.431 513.627 L 699.431 513.627 L 699.431 513.627 L 699.431 513.627 L 699.431 513.627 L 699.431 513.627 L 699.431 513.627 L 699.431 513.627 L 699.431 513.627 Z  M 771.992 513.627 L 830.019 513.627 L 801 463.348 L 771.992 513.627 L 771.992 513.627 L 771.992 513.627 L 771.992 513.627 L 771.992 513.627 L 771.992 513.627 L 771.992 513.627 L 771.992 513.627 L 771.992 513.627 L 771.992 513.627 L 771.992 513.627 L 771.992 513.627 L 771.992 513.627 L 771.992 513.627 L 771.992 513.627 L 771.992 513.627 L 771.992 513.627 L 771.992 513.627 L 771.992 513.627 L 771.992 513.627 L 771.992 513.627 L 771.992 513.627 L 771.992 513.627 L 771.992 513.627 L 771.992 513.627 L 771.992 513.627 L 771.992 513.627 L 771.992 513.627 L 771.992 513.627 L 771.992 513.627 L 771.992 513.627 L 771.992 513.627 L 771.992 513.627 L 771.992 513.627 L 771.992 513.627 L 771.992 513.627 L 771.992 513.627 L 771.992 513.627 L 771.992 513.627 L 771.992 513.627 L 771.992 513.627 L 771.992 513.627 L 771.992 513.627 L 771.992 513.627 L 771.992 513.627 L 771.992 513.627 L 771.992 513.627 L 771.992 513.627 L 771.992 513.627 L 771.992 513.627 L 771.992 513.627 L 771.992 513.627 Z  M 975.156 513.627 L 946.124 463.348 L 917.118 513.627 L 975.156 513.627 L 975.156 513.627 L 975.156 513.627 L 975.156 513.627 L 975.156 513.627 L 975.156 513.627 L 975.156 513.627 L 975.156 513.627 L 975.156 513.627 L 975.156 513.627 L 975.156 513.627 L 975.156 513.627 L 975.156 513.627 L 975.156 513.627 L 975.156 513.627 L 975.156 513.627 L 975.156 513.627 L 975.156 513.627 L 975.156 513.627 L 975.156 513.627 L 975.156 513.627 L 975.156 513.627 L 975.156 513.627 L 975.156 513.627 L 975.156 513.627 L 975.156 513.627 L 975.156 513.627 L 975.156 513.627 L 975.156 513.627 L 975.156 513.627 L 975.156 513.627 L 975.156 513.627 L 975.156 513.627 L 975.156 513.627 L 975.156 513.627 L 975.156 513.627 L 975.156 513.627 L 975.156 513.627 L 975.156 513.627 L 975.156 513.627 L 975.156 513.627 L 975.156 513.627 L 975.156 513.627 L 975.156 513.627 L 975.156 513.627 L 975.156 513.627 L 975.156 513.627 L 975.156 513.627 L 975.156 513.627 L 975.156 513.627 L 975.156 513.627 Z  M 873.561 572.292 L 902.595 522.019 L 844.555 522.019 L 873.561 572.292 L 873.561 572.292 L 873.561 572.292 L 873.561 572.292 L 873.561 572.292 L 873.561 572.292 L 873.561 572.292 L 873.561 572.292 L 873.561 572.292 L 873.561 572.292 L 873.561 572.292 L 873.561 572.292 L 873.561 572.292 L 873.561 572.292 L 873.561 572.292 L 873.561 572.292 L 873.561 572.292 L 873.561 572.292 L 873.561 572.292 L 873.561 572.292 L 873.561 572.292 L 873.561 572.292 L 873.561 572.292 L 873.561 572.292 L 873.561 572.292 L 873.561 572.292 L 873.561 572.292 L 873.561 572.292 L 873.561 572.292 L 873.561 572.292 L 873.561 572.292 L 873.561 572.292 L 873.561 572.292 L 873.561 572.292 L 873.561 572.292 L 873.561 572.292 L 873.561 572.292 L 873.561 572.292 L 873.561 572.292 L 873.561 572.292 L 873.561 572.292 L 873.561 572.292 L 873.561 572.292 L 873.561 572.292 L 873.561 572.292 L 873.561 572.292 L 873.561 572.292 L 873.561 572.292 L 873.561 572.292 L 873.561 572.292 Z  M 975.156 522.019 L 917.118 522.019 L 946.124 572.292 L 975.156 522.019 L 975.156 522.019 L 975.156 522.019 L 975.156 522.019 L 975.156 522.019 L 975.156 522.019 L 975.156 522.019 L 975.156 522.019 L 975.156 522.019 L 975.156 522.019 L 975.156 522.019 L 975.156 522.019 L 975.156 522.019 L 975.156 522.019 L 975.156 522.019 L 975.156 522.019 L 975.156 522.019 L 975.156 522.019 L 975.156 522.019 L 975.156 522.019 L 975.156 522.019 L 975.156 522.019 L 975.156 522.019 L 975.156 522.019 L 975.156 522.019 L 975.156 522.019 L 975.156 522.019 L 975.156 522.019 L 975.156 522.019 L 975.156 522.019 L 975.156 522.019 L 975.156 522.019 L 975.156 522.019 L 975.156 522.019 L 975.156 522.019 L 975.156 522.019 L 975.156 522.019 L 975.156 522.019 L 975.156 522.019 L 975.156 522.019 L 975.156 522.019 L 975.156 522.019 L 975.156 522.019 L 975.156 522.019 L 975.156 522.019 L 975.156 522.019 L 975.156 522.019 L 975.156 522.019 L 975.156 522.019 Z  M 830.019 522.019 L 771.992 522.019 L 801 572.292 L 830.019 522.019 L 830.019 522.019 L 830.019 522.019 L 830.019 522.019 L 830.019 522.019 L 830.019 522.019 L 830.019 522.019 L 830.019 522.019 L 830.019 522.019 L 830.019 522.019 L 830.019 522.019 L 830.019 522.019 L 830.019 522.019 L 830.019 522.019 L 830.019 522.019 L 830.019 522.019 L 830.019 522.019 L 830.019 522.019 L 830.019 522.019 L 830.019 522.019 L 830.019 522.019 L 830.019 522.019 L 830.019 522.019 L 830.019 522.019 L 830.019 522.019 L 830.019 522.019 L 830.019 522.019 L 830.019 522.019 L 830.019 522.019 L 830.019 522.019 L 830.019 522.019 L 830.019 522.019 L 830.019 522.019 L 830.019 522.019 L 830.019 522.019 L 830.019 522.019 L 830.019 522.019 L 830.019 522.019 L 830.019 522.019 L 830.019 522.019 L 830.019 522.019 L 830.019 522.019 L 830.019 522.019 L 830.019 522.019 L 830.019 522.019 L 830.019 522.019 L 830.019 522.019 L 830.019 522.019 Z  M 757.456 522.019 L 699.431 522.019 L 728.45 572.292 L 757.456 522.019 L 757.456 522.019 L 757.456 522.019 L 757.456 522.019 L 757.456 522.019 L 757.456 522.019 L 757.456 522.019 L 757.456 522.019 L 757.456 522.019 L 757.456 522.019 L 757.456 522.019 L 757.456 522.019 L 757.456 522.019 L 757.456 522.019 L 757.456 522.019 L 757.456 522.019 L 757.456 522.019 L 757.456 522.019 L 757.456 522.019 L 757.456 522.019 L 757.456 522.019 L 757.456 522.019 L 757.456 522.019 L 757.456 522.019 L 757.456 522.019 L 757.456 522.019 L 757.456 522.019 L 757.456 522.019 L 757.456 522.019 L 757.456 522.019 L 757.456 522.019 L 757.456 522.019 L 757.456 522.019 L 757.456 522.019 L 757.456 522.019 L 757.456 522.019 L 757.456 522.019 L 757.456 522.019 L 757.456 522.019 L 757.456 522.019 L 757.456 522.019 L 757.456 522.019 L 757.456 522.019 L 757.456 522.019 L 757.456 522.019 L 757.456 522.019 L 757.456 522.019 Z  M 655.887 572.292 L 684.895 522.019 L 626.849 522.019 L 655.887 572.292 L 655.887 572.292 L 655.887 572.292 L 655.887 572.292 L 655.887 572.292 L 655.887 572.292 L 655.887 572.292 L 655.887 572.292 L 655.887 572.292 L 655.887 572.292 L 655.887 572.292 L 655.887 572.292 L 655.887 572.292 L 655.887 572.292 L 655.887 572.292 L 655.887 572.292 L 655.887 572.292 L 655.887 572.292 L 655.887 572.292 L 655.887 572.292 L 655.887 572.292 L 655.887 572.292 L 655.887 572.292 L 655.887 572.292 L 655.887 572.292 L 655.887 572.292 L 655.887 572.292 L 655.887 572.292 L 655.887 572.292 L 655.887 572.292 L 655.887 572.292 L 655.887 572.292 L 655.887 572.292 L 655.887 572.292 L 655.887 572.292 L 655.887 572.292 L 655.887 572.292 L 655.887 572.292 L 655.887 572.292 L 655.887 572.292 L 655.887 572.292 L 655.887 572.292 L 655.887 572.292 L 655.887 572.292 L 655.887 572.292 L 655.887 572.292 Z  M 612.334 522.019 L 554.288 522.019 L 583.326 572.292 L 612.334 522.019 L 612.334 522.019 L 612.334 522.019 L 612.334 522.019 L 612.334 522.019 L 612.334 522.019 L 612.334 522.019 L 612.334 522.019 L 612.334 522.019 L 612.334 522.019 L 612.334 522.019 L 612.334 522.019 L 612.334 522.019 L 612.334 522.019 L 612.334 522.019 L 612.334 522.019 L 612.334 522.019 L 612.334 522.019 L 612.334 522.019 L 612.334 522.019 L 612.334 522.019 L 612.334 522.019 L 612.334 522.019 L 612.334 522.019 L 612.334 522.019 L 612.334 522.019 L 612.334 522.019 L 612.334 522.019 L 612.334 522.019 L 612.334 522.019 L 612.334 522.019 L 612.334 522.019 L 612.334 522.019 L 612.334 522.019 L 612.334 522.019 L 612.334 522.019 L 612.334 522.019 L 612.334 522.019 L 612.334 522.019 L 612.334 522.019 L 612.334 522.019 L 612.334 522.019 L 612.334 522.019 L 612.334 522.019 L 612.334 522.019 Z  M 547.025 526.2 L 518 576.462 L 576.059 576.462 L 547.025 526.2 L 547.025 526.2 L 547.025 526.2 L 547.025 526.2 L 547.025 526.2 L 547.025 526.2 L 547.025 526.2 L 547.025 526.2 L 547.025 526.2 L 547.025 526.2 L 547.025 526.2 L 547.025 526.2 L 547.025 526.2 L 547.025 526.2 L 547.025 526.2 L 547.025 526.2 L 547.025 526.2 L 547.025 526.2 L 547.025 526.2 L 547.025 526.2 L 547.025 526.2 L 547.025 526.2 L 547.025 526.2 L 547.025 526.2 L 547.025 526.2 L 547.025 526.2 L 547.025 526.2 L 547.025 526.2 L 547.025 526.2 L 547.025 526.2 L 547.025 526.2 L 547.025 526.2 L 547.025 526.2 L 547.025 526.2 L 547.025 526.2 L 547.025 526.2 L 547.025 526.2 L 547.025 526.2 L 547.025 526.2 L 547.025 526.2 L 547.025 526.2 L 547.025 526.2 L 547.025 526.2 L 547.025 526.2 Z  M 590.576 576.462 L 648.62 576.462 L 619.588 526.2 L 590.576 576.462 L 590.576 576.462 L 590.576 576.462 L 590.576 576.462 L 590.576 576.462 L 590.576 576.462 L 590.576 576.462 L 590.576 576.462 L 590.576 576.462 L 590.576 576.462 L 590.576 576.462 L 590.576 576.462 L 590.576 576.462 L 590.576 576.462 L 590.576 576.462 L 590.576 576.462 L 590.576 576.462 L 590.576 576.462 L 590.576 576.462 L 590.576 576.462 L 590.576 576.462 L 590.576 576.462 L 590.576 576.462 L 590.576 576.462 L 590.576 576.462 L 590.576 576.462 L 590.576 576.462 L 590.576 576.462 L 590.576 576.462 L 590.576 576.462 L 590.576 576.462 L 590.576 576.462 L 590.576 576.462 L 590.576 576.462 L 590.576 576.462 L 590.576 576.462 L 590.576 576.462 L 590.576 576.462 L 590.576 576.462 L 590.576 576.462 L 590.576 576.462 L 590.576 576.462 L 590.576 576.462 Z  M 692.162 526.2 L 663.124 576.462 L 721.183 576.462 L 692.162 526.2 L 692.162 526.2 L 692.162 526.2 L 692.162 526.2 L 692.162 526.2 L 692.162 526.2 L 692.162 526.2 L 692.162 526.2 L 692.162 526.2 L 692.162 526.2 L 692.162 526.2 L 692.162 526.2 L 692.162 526.2 L 692.162 526.2 L 692.162 526.2 L 692.162 526.2 L 692.162 526.2 L 692.162 526.2 L 692.162 526.2 L 692.162 526.2 L 692.162 526.2 L 692.162 526.2 L 692.162 526.2 L 692.162 526.2 L 692.162 526.2 L 692.162 526.2 L 692.162 526.2 L 692.162 526.2 L 692.162 526.2 L 692.162 526.2 L 692.162 526.2 L 692.162 526.2 L 692.162 526.2 L 692.162 526.2 L 692.162 526.2 L 692.162 526.2 L 692.162 526.2 L 692.162 526.2 L 692.162 526.2 L 692.162 526.2 L 692.162 526.2 L 692.162 526.2 Z  M 837.292 526.2 L 808.274 576.462 L 866.324 576.462 L 837.292 526.2 L 837.292 526.2 L 837.292 526.2 L 837.292 526.2 L 837.292 526.2 L 837.292 526.2 L 837.292 526.2 L 837.292 526.2 L 837.292 526.2 L 837.292 526.2 L 837.292 526.2 L 837.292 526.2 L 837.292 526.2 L 837.292 526.2 L 837.292 526.2 L 837.292 526.2 L 837.292 526.2 L 837.292 526.2 L 837.292 526.2 L 837.292 526.2 L 837.292 526.2 L 837.292 526.2 L 837.292 526.2 L 837.292 526.2 L 837.292 526.2 L 837.292 526.2 L 837.292 526.2 L 837.292 526.2 L 837.292 526.2 L 837.292 526.2 L 837.292 526.2 L 837.292 526.2 L 837.292 526.2 L 837.292 526.2 L 837.292 526.2 L 837.292 526.2 L 837.292 526.2 L 837.292 526.2 L 837.292 526.2 L 837.292 526.2 L 837.292 526.2 Z  M 909.855 526.2 L 880.834 576.462 L 938.874 576.462 L 909.855 526.2 L 909.855 526.2 L 909.855 526.2 L 909.855 526.2 L 909.855 526.2 L 909.855 526.2 L 909.855 526.2 L 909.855 526.2 L 909.855 526.2 L 909.855 526.2 L 909.855 526.2 L 909.855 526.2 L 909.855 526.2 L 909.855 526.2 L 909.855 526.2 L 909.855 526.2 L 909.855 526.2 L 909.855 526.2 L 909.855 526.2 L 909.855 526.2 L 909.855 526.2 L 909.855 526.2 L 909.855 526.2 L 909.855 526.2 L 909.855 526.2 L 909.855 526.2 L 909.855 526.2 L 909.855 526.2 L 909.855 526.2 L 909.855 526.2 L 909.855 526.2 L 909.855 526.2 L 909.855 526.2 L 909.855 526.2 L 909.855 526.2 L 909.855 526.2 L 909.855 526.2 L 909.855 526.2 L 909.855 526.2 L 909.855 526.2 Z  M 1011.45 576.462 L 982.416 526.2 L 953.397 576.462 L 1011.45 576.462 L 1011.45 576.462 L 1011.45 576.462 L 1011.45 576.462 L 1011.45 576.462 L 1011.45 576.462 L 1011.45 576.462 L 1011.45 576.462 L 1011.45 576.462 L 1011.45 576.462 L 1011.45 576.462 L 1011.45 576.462 L 1011.45 576.462 L 1011.45 576.462 L 1011.45 576.462 L 1011.45 576.462 L 1011.45 576.462 L 1011.45 576.462 L 1011.45 576.462 L 1011.45 576.462 L 1011.45 576.462 L 1011.45 576.462 L 1011.45 576.462 L 1011.45 576.462 L 1011.45 576.462 L 1011.45 576.462 L 1011.45 576.462 L 1011.45 576.462 L 1011.45 576.462 L 1011.45 576.462 L 1011.45 576.462 L 1011.45 576.462 L 1011.45 576.462 L 1011.45 576.462 L 1011.45 576.462 L 1011.45 576.462 L 1011.45 576.462 L 1011.45 576.462 L 1011.45 576.462 Z  M 902.595 396.322 L 844.555 396.322 L 873.561 446.594 L 902.595 396.322 L 902.595 396.322 L 902.595 396.322 L 902.595 396.322 L 902.595 396.322 L 902.595 396.322 L 902.595 396.322 L 902.595 396.322 L 902.595 396.322 L 902.595 396.322 L 902.595 396.322 L 902.595 396.322 L 902.595 396.322 L 902.595 396.322 L 902.595 396.322 L 902.595 396.322 L 902.595 396.322 L 902.595 396.322 L 902.595 396.322 L 902.595 396.322 L 902.595 396.322 L 902.595 396.322 L 902.595 396.322 L 902.595 396.322 L 902.595 396.322 L 902.595 396.322 L 902.595 396.322 L 902.595 396.322 L 902.595 396.322 L 902.595 396.322 L 902.595 396.322 L 902.595 396.322 L 902.595 396.322 L 902.595 396.322 L 902.595 396.322 L 902.595 396.322 L 902.595 396.322 L 902.595 396.322 Z  M 801 446.594 L 830.019 396.322 L 771.992 396.322 L 801 446.594 L 801 446.594 L 801 446.594 L 801 446.594 L 801 446.594 L 801 446.594 L 801 446.594 L 801 446.594 L 801 446.594 L 801 446.594 L 801 446.594 L 801 446.594 L 801 446.594 L 801 446.594 L 801 446.594 L 801 446.594 L 801 446.594 L 801 446.594 L 801 446.594 L 801 446.594 L 801 446.594 L 801 446.594 L 801 446.594 L 801 446.594 L 801 446.594 L 801 446.594 L 801 446.594 L 801 446.594 L 801 446.594 L 801 446.594 L 801 446.594 L 801 446.594 L 801 446.594 L 801 446.594 L 801 446.594 L 801 446.594 L 801 446.594 Z  M 757.456 396.322 L 699.431 396.322 L 728.45 446.594 L 757.456 396.322 L 757.456 396.322 L 757.456 396.322 L 757.456 396.322 L 757.456 396.322 L 757.456 396.322 L 757.456 396.322 L 757.456 396.322 L 757.456 396.322 L 757.456 396.322 L 757.456 396.322 L 757.456 396.322 L 757.456 396.322 L 757.456 396.322 L 757.456 396.322 L 757.456 396.322 L 757.456 396.322 L 757.456 396.322 L 757.456 396.322 L 757.456 396.322 L 757.456 396.322 L 757.456 396.322 L 757.456 396.322 L 757.456 396.322 L 757.456 396.322 L 757.456 396.322 L 757.456 396.322 L 757.456 396.322 L 757.456 396.322 L 757.456 396.322 L 757.456 396.322 L 757.456 396.322 L 757.456 396.322 L 757.456 396.322 L 757.456 396.322 L 757.456 396.322 Z  M 684.895 396.322 L 626.849 396.322 L 655.887 446.594 L 684.895 396.322 L 684.895 396.322 L 684.895 396.322 L 684.895 396.322 L 684.895 396.322 L 684.895 396.322 L 684.895 396.322 L 684.895 396.322 L 684.895 396.322 L 684.895 396.322 L 684.895 396.322 L 684.895 396.322 L 684.895 396.322 L 684.895 396.322 L 684.895 396.322 L 684.895 396.322 L 684.895 396.322 L 684.895 396.322 L 684.895 396.322 L 684.895 396.322 L 684.895 396.322 L 684.895 396.322 L 684.895 396.322 L 684.895 396.322 L 684.895 396.322 L 684.895 396.322 L 684.895 396.322 L 684.895 396.322 L 684.895 396.322 L 684.895 396.322 L 684.895 396.322 L 684.895 396.322 L 684.895 396.322 L 684.895 396.322 L 684.895 396.322 Z  M 619.588 400.515 L 590.576 450.795 L 648.62 450.795 L 619.588 400.515 L 619.588 400.515 L 619.588 400.515 L 619.588 400.515 L 619.588 400.515 L 619.588 400.515 L 619.588 400.515 L 619.588 400.515 L 619.588 400.515 L 619.588 400.515 L 619.588 400.515 L 619.588 400.515 L 619.588 400.515 L 619.588 400.515 L 619.588 400.515 L 619.588 400.515 L 619.588 400.515 L 619.588 400.515 L 619.588 400.515 L 619.588 400.515 L 619.588 400.515 L 619.588 400.515 L 619.588 400.515 L 619.588 400.515 L 619.588 400.515 L 619.588 400.515 L 619.588 400.515 L 619.588 400.515 L 619.588 400.515 L 619.588 400.515 L 619.588 400.515 L 619.588 400.515 L 619.588 400.515 L 619.588 400.515 Z  M 721.183 450.795 L 692.162 400.515 L 663.124 450.795 L 721.183 450.795 L 721.183 450.795 L 721.183 450.795 L 721.183 450.795 L 721.183 450.795 L 721.183 450.795 L 721.183 450.795 L 721.183 450.795 L 721.183 450.795 L 721.183 450.795 L 721.183 450.795 L 721.183 450.795 L 721.183 450.795 L 721.183 450.795 L 721.183 450.795 L 721.183 450.795 L 721.183 450.795 L 721.183 450.795 L 721.183 450.795 L 721.183 450.795 L 721.183 450.795 L 721.183 450.795 L 721.183 450.795 L 721.183 450.795 L 721.183 450.795 L 721.183 450.795 L 721.183 450.795 L 721.183 450.795 L 721.183 450.795 L 721.183 450.795 L 721.183 450.795 L 721.183 450.795 L 721.183 450.795 Z  M 764.725 400.515 L 735.693 450.795 L 793.752 450.795 L 764.725 400.515 L 764.725 400.515 L 764.725 400.515 L 764.725 400.515 L 764.725 400.515 L 764.725 400.515 L 764.725 400.515 L 764.725 400.515 L 764.725 400.515 L 764.725 400.515 L 764.725 400.515 L 764.725 400.515 L 764.725 400.515 L 764.725 400.515 L 764.725 400.515 L 764.725 400.515 L 764.725 400.515 L 764.725 400.515 L 764.725 400.515 L 764.725 400.515 L 764.725 400.515 L 764.725 400.515 L 764.725 400.515 L 764.725 400.515 L 764.725 400.515 L 764.725 400.515 L 764.725 400.515 L 764.725 400.515 L 764.725 400.515 L 764.725 400.515 L 764.725 400.515 L 764.725 400.515 Z  M 866.324 450.795 L 837.292 400.515 L 808.274 450.795 L 866.324 450.795 L 866.324 450.795 L 866.324 450.795 L 866.324 450.795 L 866.324 450.795 L 866.324 450.795 L 866.324 450.795 L 866.324 450.795 L 866.324 450.795 L 866.324 450.795 L 866.324 450.795 L 866.324 450.795 L 866.324 450.795 L 866.324 450.795 L 866.324 450.795 L 866.324 450.795 L 866.324 450.795 L 866.324 450.795 L 866.324 450.795 L 866.324 450.795 L 866.324 450.795 L 866.324 450.795 L 866.324 450.795 L 866.324 450.795 L 866.324 450.795 L 866.324 450.795 L 866.324 450.795 L 866.324 450.795 L 866.324 450.795 L 866.324 450.795 L 866.324 450.795 Z  M 938.874 450.795 L 909.855 400.515 L 880.834 450.795 L 938.874 450.795 L 938.874 450.795 L 938.874 450.795 L 938.874 450.795 L 938.874 450.795 L 938.874 450.795 L 938.874 450.795 L 938.874 450.795 L 938.874 450.795 L 938.874 450.795 L 938.874 450.795 L 938.874 450.795 L 938.874 450.795 L 938.874 450.795 L 938.874 450.795 L 938.874 450.795 L 938.874 450.795 L 938.874 450.795 L 938.874 450.795 L 938.874 450.795 L 938.874 450.795 L 938.874 450.795 L 938.874 450.795 L 938.874 450.795 L 938.874 450.795 L 938.874 450.795 L 938.874 450.795 L 938.874 450.795 L 938.874 450.795 L 938.874 450.795 Z  M 938.874 584.847 L 880.834 584.847 L 909.855 635.139 L 938.874 584.847 L 938.874 584.847 L 938.874 584.847 L 938.874 584.847 L 938.874 584.847 L 938.874 584.847 L 938.874 584.847 L 938.874 584.847 L 938.874 584.847 L 938.874 584.847 L 938.874 584.847 L 938.874 584.847 L 938.874 584.847 L 938.874 584.847 L 938.874 584.847 L 938.874 584.847 L 938.874 584.847 L 938.874 584.847 L 938.874 584.847 L 938.874 584.847 L 938.874 584.847 L 938.874 584.847 L 938.874 584.847 L 938.874 584.847 L 938.874 584.847 L 938.874 584.847 L 938.874 584.847 L 938.874 584.847 L 938.874 584.847 Z  M 837.292 635.139 L 866.324 584.847 L 808.274 584.847 L 837.292 635.139 L 837.292 635.139 L 837.292 635.139 L 837.292 635.139 L 837.292 635.139 L 837.292 635.139 L 837.292 635.139 L 837.292 635.139 L 837.292 635.139 L 837.292 635.139 L 837.292 635.139 L 837.292 635.139 L 837.292 635.139 L 837.292 635.139 L 837.292 635.139 L 837.292 635.139 L 837.292 635.139 L 837.292 635.139 L 837.292 635.139 L 837.292 635.139 L 837.292 635.139 L 837.292 635.139 L 837.292 635.139 L 837.292 635.139 L 837.292 635.139 L 837.292 635.139 L 837.292 635.139 L 837.292 635.139 Z  M 793.752 584.847 L 735.693 584.847 L 764.725 635.139 L 793.752 584.847 L 793.752 584.847 L 793.752 584.847 L 793.752 584.847 L 793.752 584.847 L 793.752 584.847 L 793.752 584.847 L 793.752 584.847 L 793.752 584.847 L 793.752 584.847 L 793.752 584.847 L 793.752 584.847 L 793.752 584.847 L 793.752 584.847 L 793.752 584.847 L 793.752 584.847 L 793.752 584.847 L 793.752 584.847 L 793.752 584.847 L 793.752 584.847 L 793.752 584.847 L 793.752 584.847 L 793.752 584.847 L 793.752 584.847 L 793.752 584.847 L 793.752 584.847 L 793.752 584.847 Z  M 692.162 635.139 L 721.183 584.847 L 663.124 584.847 L 692.162 635.139 L 692.162 635.139 L 692.162 635.139 L 692.162 635.139 L 692.162 635.139 L 692.162 635.139 L 692.162 635.139 L 692.162 635.139 L 692.162 635.139 L 692.162 635.139 L 692.162 635.139 L 692.162 635.139 L 692.162 635.139 L 692.162 635.139 L 692.162 635.139 L 692.162 635.139 L 692.162 635.139 L 692.162 635.139 L 692.162 635.139 L 692.162 635.139 L 692.162 635.139 L 692.162 635.139 L 692.162 635.139 L 692.162 635.139 L 692.162 635.139 L 692.162 635.139 Z  M 619.588 635.139 L 648.62 584.847 L 590.576 584.847 L 619.588 635.139 L 619.588 635.139 L 619.588 635.139 L 619.588 635.139 L 619.588 635.139 L 619.588 635.139 L 619.588 635.139 L 619.588 635.139 L 619.588 635.139 L 619.588 635.139 L 619.588 635.139 L 619.588 635.139 L 619.588 635.139 L 619.588 635.139 L 619.588 635.139 L 619.588 635.139 L 619.588 635.139 L 619.588 635.139 L 619.588 635.139 L 619.588 635.139 L 619.588 635.139 L 619.588 635.139 L 619.588 635.139 L 619.588 635.139 L 619.588 635.139 Z  M 518 584.847 L 547.025 635.139 L 576.059 584.847 L 518 584.847 L 518 584.847 L 518 584.847 L 518 584.847 L 518 584.847 L 518 584.847 L 518 584.847 L 518 584.847 L 518 584.847 L 518 584.847 L 518 584.847 L 518 584.847 L 518 584.847 L 518 584.847 L 518 584.847 L 518 584.847 L 518 584.847 L 518 584.847 L 518 584.847 L 518 584.847 L 518 584.847 L 518 584.847 L 518 584.847 L 518 584.847 Z  M 554.288 639.333 L 612.334 639.333 L 583.326 589.041 L 554.288 639.333 L 554.288 639.333 L 554.288 639.333 L 554.288 639.333 L 554.288 639.333 L 554.288 639.333 L 554.288 639.333 L 554.288 639.333 L 554.288 639.333 L 554.288 639.333 L 554.288 639.333 L 554.288 639.333 L 554.288 639.333 L 554.288 639.333 L 554.288 639.333 L 554.288 639.333 L 554.288 639.333 L 554.288 639.333 L 554.288 639.333 L 554.288 639.333 L 554.288 639.333 L 554.288 639.333 L 554.288 639.333 Z  M 655.887 589.041 L 626.849 639.333 L 684.895 639.333 L 655.887 589.041 L 655.887 589.041 L 655.887 589.041 L 655.887 589.041 L 655.887 589.041 L 655.887 589.041 L 655.887 589.041 L 655.887 589.041 L 655.887 589.041 L 655.887 589.041 L 655.887 589.041 L 655.887 589.041 L 655.887 589.041 L 655.887 589.041 L 655.887 589.041 L 655.887 589.041 L 655.887 589.041 L 655.887 589.041 L 655.887 589.041 L 655.887 589.041 L 655.887 589.041 L 655.887 589.041 Z  M 728.45 589.041 L 699.431 639.333 L 757.456 639.333 L 728.45 589.041 L 728.45 589.041 L 728.45 589.041 L 728.45 589.041 L 728.45 589.041 L 728.45 589.041 L 728.45 589.041 L 728.45 589.041 L 728.45 589.041 L 728.45 589.041 L 728.45 589.041 L 728.45 589.041 L 728.45 589.041 L 728.45 589.041 L 728.45 589.041 L 728.45 589.041 L 728.45 589.041 L 728.45 589.041 L 728.45 589.041 L 728.45 589.041 L 728.45 589.041 Z  M 801 589.041 L 771.992 639.333 L 830.019 639.333 L 801 589.041 L 801 589.041 L 801 589.041 L 801 589.041 L 801 589.041 L 801 589.041 L 801 589.041 L 801 589.041 L 801 589.041 L 801 589.041 L 801 589.041 L 801 589.041 L 801 589.041 L 801 589.041 L 801 589.041 L 801 589.041 L 801 589.041 L 801 589.041 L 801 589.041 L 801 589.041 Z  M 873.561 589.041 L 844.555 639.333 L 902.595 639.333 L 873.561 589.041 L 873.561 589.041 L 873.561 589.041 L 873.561 589.041 L 873.561 589.041 L 873.561 589.041 L 873.561 589.041 L 873.561 589.041 L 873.561 589.041 L 873.561 589.041 L 873.561 589.041 L 873.561 589.041 L 873.561 589.041 L 873.561 589.041 L 873.561 589.041 L 873.561 589.041 L 873.561 589.041 L 873.561 589.041 L 873.561 589.041 Z  M 917.118 639.333 L 975.156 639.333 L 946.124 589.041 L 917.118 639.333 L 917.118 639.333 L 917.118 639.333 L 917.118 639.333 L 917.118 639.333 L 917.118 639.333 L 917.118 639.333 L 917.118 639.333 L 917.118 639.333 L 917.118 639.333 L 917.118 639.333 L 917.118 639.333 L 917.118 639.333 L 917.118 639.333 L 917.118 639.333 L 917.118 639.333 L 917.118 639.333 L 917.118 639.333 Z  M 946.124 697.974 L 975.156 647.707 L 917.118 647.707 L 946.124 697.974 L 946.124 697.974 L 946.124 697.974 L 946.124 697.974 L 946.124 697.974 L 946.124 697.974 L 946.124 697.974 L 946.124 697.974 L 946.124 697.974 L 946.124 697.974 L 946.124 697.974 L 946.124 697.974 L 946.124 697.974 L 946.124 697.974 L 946.124 697.974 L 946.124 697.974 L 946.124 697.974 Z  M 554.288 647.707 L 583.326 697.974 L 612.334 647.707 L 554.288 647.707 L 554.288 647.707 L 554.288 647.707 L 554.288 647.707 L 554.288 647.707 L 554.288 647.707 L 554.288 647.707 L 554.288 647.707 L 554.288 647.707 L 554.288 647.707 L 554.288 647.707 L 554.288 647.707 L 554.288 647.707 L 554.288 647.707 L 554.288 647.707 L 554.288 647.707 Z  M 648.62 702.165 L 619.588 651.886 L 590.576 702.165 L 648.62 702.165 L 648.62 702.165 L 648.62 702.165 L 648.62 702.165 L 648.62 702.165 L 648.62 702.165 L 648.62 702.165 L 648.62 702.165 L 648.62 702.165 L 648.62 702.165 L 648.62 702.165 L 648.62 702.165 L 648.62 702.165 L 648.62 702.165 L 648.62 702.165 Z  M 692.162 651.886 L 663.124 702.165 L 721.183 702.165 L 692.162 651.886 L 692.162 651.886 L 692.162 651.886 L 692.162 651.886 L 692.162 651.886 L 692.162 651.886 L 692.162 651.886 L 692.162 651.886 L 692.162 651.886 L 692.162 651.886 L 692.162 651.886 L 692.162 651.886 L 692.162 651.886 L 692.162 651.886 Z  M 764.725 651.886 L 735.693 702.165 L 793.752 702.165 L 764.725 651.886 L 764.725 651.886 L 764.725 651.886 L 764.725 651.886 L 764.725 651.886 L 764.725 651.886 L 764.725 651.886 L 764.725 651.886 L 764.725 651.886 L 764.725 651.886 L 764.725 651.886 L 764.725 651.886 L 764.725 651.886 Z  M 837.292 651.886 L 808.274 702.165 L 866.324 702.165 L 837.292 651.886 L 837.292 651.886 L 837.292 651.886 L 837.292 651.886 L 837.292 651.886 L 837.292 651.886 L 837.292 651.886 L 837.292 651.886 L 837.292 651.886 L 837.292 651.886 L 837.292 651.886 L 837.292 651.886 Z  M 880.834 702.165 L 938.874 702.165 L 909.855 651.886 L 880.834 702.165 L 880.834 702.165 L 880.834 702.165 L 880.834 702.165 L 880.834 702.165 L 880.834 702.165 L 880.834 702.165 L 880.834 702.165 L 880.834 702.165 L 880.834 702.165 L 880.834 702.165 Z  M 982.416 635.139 L 1011.45 584.847 L 953.397 584.847 L 982.416 635.139 L 982.416 635.139 L 982.416 635.139 L 982.416 635.139 L 982.416 635.139 L 982.416 635.139 L 982.416 635.139 L 982.416 635.139 L 982.416 635.139 L 982.416 635.139 Z  M 909.855 760.806 L 938.874 710.527 L 880.834 710.527 L 909.855 760.806 L 909.855 760.806 L 909.855 760.806 L 909.855 760.806 L 909.855 760.806 L 909.855 760.806 L 909.855 760.806 L 909.855 760.806 L 909.855 760.806 Z  M 808.274 710.527 L 837.292 760.806 L 866.324 710.527 L 808.274 710.527 L 808.274 710.527 L 808.274 710.527 L 808.274 710.527 L 808.274 710.527 L 808.274 710.527 L 808.274 710.527 L 808.274 710.527 Z  M 735.693 710.527 L 764.725 760.806 L 793.752 710.527 L 735.693 710.527 L 735.693 710.527 L 735.693 710.527 L 735.693 710.527 L 735.693 710.527 L 735.693 710.527 L 735.693 710.527 Z  M 663.124 710.527 L 692.162 760.806 L 721.183 710.527 L 663.124 710.527 L 663.124 710.527 L 663.124 710.527 L 663.124 710.527 L 663.124 710.527 L 663.124 710.527 Z  M 590.576 710.527 L 619.588 760.806 L 648.62 710.527 L 590.576 710.527 L 590.576 710.527 L 590.576 710.527 L 590.576 710.527 L 590.576 710.527 Z  M 626.849 765 L 684.895 765 L 655.887 714.731 L 626.849 765 L 626.849 765 L 626.849 765 L 626.849 765 Z  M 699.431 765 L 757.456 765 L 728.45 714.731 L 699.431 765 L 699.431 765 L 699.431 765 Z  M 771.992 765 L 830.019 765 L 801 714.731 L 771.992 765 L 771.992 765 Z  M 844.555 765 L 902.595 765 L 873.561 714.731 L 844.555 765 Z " fill-rule="evenodd" fill="rgb(219,138,8)"/></g></svg>