<?xml version="1.0" encoding="UTF-8" standalone="no"?><!-- Generator: Gravit.io --><svg xmlns="http://www.w3.org/2000/svg" xmlns:xlink="http://www.w3.org/1999/xlink" style="isolation:isolate" viewBox="576 223 256 256" width="256pt" height="256pt"><defs><clipPath id="_clipPath_AR8IP4uFm9bbqFredD3KcZBa8L7imIiN"><rect x="576" y="223" width="256" height="256"/></clipPath></defs><g clip-path="url(#_clipPath_AR8IP4uFm9bbqFredD3KcZBa8L7imIiN)"><g><g><circle vector-effect="non-scaling-stroke" cx="704" cy="351" r="128" fill="rgb(19,181,236)"/><g><path d=" M 713.6 326.2 L 742.4 309.4 L 742.4 343 L 713.6 326.2 Z  M 742.4 398.2 L 704 420.6 L 665.6 398.2 L 665.6 359 L 704 381.4 L 742.4 359 L 742.4 398.2 Z  M 665.6 309.4 L 694.4 326.2 L 665.6 343 L 665.6 309.4 Z  M 708.8 334.2 L 737.6 351 L 708.8 367.8 L 708.8 334.2 Z  M 699.2 367.8 L 670.4 351 L 699.2 334.2 L 699.2 367.8 Z  M 737.6 301.4 L 704 320.6 L 670.4 301.4 L 704 281.4 L 737.6 301.4 Z  M 656 298.2 L 656 403 L 704 430.2 L 752 403 L 752 298.2 L 704 271 L 656 298.2 Z " fill-rule="evenodd" fill="rgb(255,255,255)"/></g></g></g></g></svg>