<!DOCTYPE svg PUBLIC "-//W3C//DTD SVG 1.1//EN" "http://www.w3.org/Graphics/SVG/1.1/DTD/svg11.dtd"> <svg width="521px" height="521px" version="1.1" baseProfile="full" xmlns="http://www.w3.org/2000/svg" xmlns:xlink="http://www.w3.org/1999/xlink" xmlns:ev="http://www.w3.org/2001/xml-events"><polygon fill="rgb(228,118,27)" stroke="rgb(228,118,27)" points="317.7294387817383,295.2151135504246 250.98569869995117,309.4338760972023 229.86155319213867,244.07848070561886"></polygon><polygon fill="rgb(228,118,27)" stroke="rgb(228,118,27)" points="538.4794578552246,245.95729342103004 517.2167930603027,312.05187651515007 446.1434326171875,296.3686133623123"></polygon><polygon fill="rgb(118,61,22)" stroke="rgb(118,61,22)" points="249.1629867553711,179.3502351678908 291.21298027038574,152.97613806277514 313.4113941192627,160.23835261166096"></polygon><polygon fill="rgb(118,61,22)" stroke="rgb(118,61,22)" points="240.74736785888672,158.31983871012926 291.21298027038574,152.97613806277514 249.1629867553711,179.3502351678908"></polygon><polygon fill="rgb(118,61,22)" stroke="rgb(118,61,22)" points="240.74736785888672,158.31983871012926 238.12421035766602,143.26698794960976 291.21298027038574,152.97613806277514"></polygon><polygon fill="rgb(118,61,22)" stroke="rgb(118,61,22)" points="291.21298027038574,152.97613806277514 238.12421035766602,143.26698794960976 234.58981704711914,130.71686317026615"></polygon><polygon fill="rgb(228,118,27)" stroke="rgb(228,118,27)" points="229.86155319213867,244.07848070561886 284.37583923339844,249.1143522709608 317.7294387817383,295.2151135504246"></polygon><polygon fill="rgb(246,133,27)" stroke="rgb(246,133,27)" points="292.8885612487793,193.64833517718944 229.86155319213867,244.07848070561886 249.1629867553711,179.3502351678908"></polygon><polygon fill="rgb(246,133,27)" stroke="rgb(246,133,27)" points="284.37583923339844,249.1143522709608 229.86155319213867,244.07848070561886 292.8885612487793,193.64833517718944"></polygon><polygon fill="rgb(118,61,22)" stroke="rgb(118,61,22)" points="290.29197692871094,90.95101448893547 291.21298027038574,152.97613806277514 234.58981704711914,130.71686317026615"></polygon><polygon fill="rgb(118,61,22)" stroke="rgb(118,61,22)" points="313.4113941192627,160.23835261166096 291.21298027038574,152.97613806277514 290.29197692871094,90.95101448893547"></polygon><polygon fill="rgb(118,61,22)" stroke="rgb(118,61,22)" points="517.5977325439453,179.98469725996256 452.1284637451172,160.41331002116203 475.6395435333252,153.1323074027896"></polygon><polygon fill="rgb(118,61,22)" stroke="rgb(118,61,22)" points="526.2155456542969,158.64992167800665 517.5977325439453,179.98469725996256 475.6395435333252,153.1323074027896"></polygon><polygon fill="rgb(118,61,22)" stroke="rgb(118,61,22)" points="526.2155456542969,158.64992167800665 475.6395435333252,153.1323074027896 528.9627342224121,143.35173033177853"></polygon><polygon fill="rgb(118,61,22)" stroke="rgb(118,61,22)" points="475.6395435333252,153.1323074027896 532.6144752502441,130.58873176574707 528.9627342224121,143.35173033177853"></polygon><polygon fill="rgb(246,133,27)" stroke="rgb(246,133,27)" points="405.19078159332275,122.7742961794138 358.5370759963989,122.81525740027428 340.5341606140137,67.29812675714493"></polygon><polygon fill="rgb(246,133,27)" stroke="rgb(246,133,27)" points="340.5341606140137,67.29812675714493 425.9266834259033,66.95223712921143 405.19078159332275,122.7742961794138"></polygon><polygon fill="rgb(228,118,27)" stroke="rgb(228,118,27)" points="446.1434326171875,296.3686133623123 478.67154693603516,250.34957268834114 538.4794578552246,245.95729342103004"></polygon><polygon fill="rgb(118,61,22)" stroke="rgb(118,61,22)" points="532.6144752502441,130.58873176574707 475.6395435333252,153.1323074027896 474.5412712097168,90.45224833488464"></polygon><polygon fill="rgb(118,61,22)" stroke="rgb(118,61,22)" points="474.5412712097168,90.45224833488464 475.6395435333252,153.1323074027896 452.1284637451172,160.41331002116203"></polygon><polygon fill="rgb(246,133,27)" stroke="rgb(246,133,27)" points="470.0281734466553,194.21106556348968 517.5977325439453,179.98469725996256 538.4794578552246,245.95729342103004"></polygon><polygon fill="rgb(246,133,27)" stroke="rgb(246,133,27)" points="470.0281734466553,194.21106556348968 538.4794578552246,245.95729342103004 478.67154693603516,250.34957268834114"></polygon><polygon fill="rgb(118,61,22)" stroke="rgb(118,61,22)" points="249.1629867553711,179.3502351678908 234.68492889404297,163.0638320222497 240.74736785888672,158.31983871012926"></polygon><polygon fill="rgb(228,118,27)" stroke="rgb(228,118,27)" points="358.5370759963989,122.81525740027428 236.28194046020508,34.50559866428375 340.5341606140137,67.29812675714493"></polygon><polygon fill="rgb(118,61,22)" stroke="rgb(118,61,22)" points="240.74736785888672,158.31983871012926 230.70435333251953,149.52323343604803 238.12421035766602,143.26698794960976"></polygon><polygon fill="rgb(118,61,22)" stroke="rgb(118,61,22)" points="290.29197692871094,90.95101448893547 358.5370759963989,122.81525740027428 313.4113941192627,160.23835261166096"></polygon><polygon fill="rgb(118,61,22)" stroke="rgb(118,61,22)" points="228.00374221801758,135.9645359069109 234.58981704711914,130.71686317026615 238.12421035766602,143.26698794960976"></polygon><polygon fill="rgb(226,118,27)" stroke="rgb(226,118,27)" points="528.2262496948242,32.76570117473602 405.19078159332275,122.7742961794138 425.9266834259033,66.95223712921143"></polygon><polygon fill="rgb(246,133,27)" stroke="rgb(246,133,27)" points="249.1629867553711,179.3502351678908 313.4113941192627,160.23835261166096 292.8885612487793,193.64833517718944"></polygon><polygon fill="rgb(118,61,22)" stroke="rgb(118,61,22)" points="452.1284637451172,160.41331002116203 405.19078159332275,122.7742961794138 474.5412712097168,90.45224833488464"></polygon><polygon fill="rgb(118,61,22)" stroke="rgb(118,61,22)" points="517.5977325439453,179.98469725996256 526.2155456542969,158.64992167800665 532.299144744873,163.48923647403717"></polygon><polygon fill="rgb(118,61,22)" stroke="rgb(118,61,22)" points="234.58981704711914,130.71686317026615 222.44992446899414,80.9774329662323 290.29197692871094,90.95101448893547"></polygon><polygon fill="rgb(118,61,22)" stroke="rgb(118,61,22)" points="526.2155456542969,158.64992167800665 528.9627342224121,143.35173033177853 536.411190032959,149.7223102748394"></polygon><polygon fill="rgb(246,133,27)" stroke="rgb(246,133,27)" points="517.5977325439453,179.98469725996256 470.0281734466553,194.21106556348968 452.1284637451172,160.41331002116203"></polygon><polygon fill="rgb(228,118,27)" stroke="rgb(228,118,27)" points="313.4113941192627,160.23835261166096 358.5370759963989,122.81525740027428 361.54292249679565,198.41074643936008"></polygon><polygon fill="rgb(228,118,27)" stroke="rgb(228,118,27)" points="361.54292249679565,198.41074643936008 292.8885612487793,193.64833517718944 313.4113941192627,160.23835261166096"></polygon><polygon fill="rgb(118,61,22)" stroke="rgb(118,61,22)" points="539.2328453063965,135.92458963394165 528.9627342224121,143.35173033177853 532.6144752502441,130.58873176574707"></polygon><polygon fill="rgb(228,118,27)" stroke="rgb(228,118,27)" points="452.1284637451172,160.41331002116203 470.0281734466553,194.21106556348968 399.35461807250977,198.5406705820933"></polygon><polygon fill="rgb(228,118,27)" stroke="rgb(228,118,27)" points="399.35461807250977,198.5406705820933 405.19078159332275,122.7742961794138 452.1284637451172,160.41331002116203"></polygon><polygon fill="rgb(118,61,22)" stroke="rgb(118,61,22)" points="474.5412712097168,90.45224833488464 544.0373039245605,79.91899225115776 532.6144752502441,130.58873176574707"></polygon><polygon fill="rgb(205,97,22)" stroke="rgb(205,97,22)" points="317.7294387817383,295.2151135504246 284.37583923339844,249.1143522709608 321.80625343322754,251.21209385991096"></polygon><polygon fill="rgb(205,97,22)" stroke="rgb(205,97,22)" points="446.1434326171875,296.3686133623123 439.51893424987793,251.97296454012394 478.67154693603516,250.34957268834114"></polygon><polygon fill="rgb(118,61,22)" stroke="rgb(118,61,22)" points="236.28194046020508,34.50559866428375 358.5370759963989,122.81525740027428 290.29197692871094,90.95101448893547"></polygon><polygon fill="rgb(118,61,22)" stroke="rgb(118,61,22)" points="290.29197692871094,90.95101448893547 222.44992446899414,80.9774329662323 236.28194046020508,34.50559866428375"></polygon><polygon fill="rgb(246,133,27)" stroke="rgb(246,133,27)" points="358.5370759963989,122.81525740027428 405.19078159332275,122.7742961794138 399.35461807250977,198.5406705820933"></polygon><polygon fill="rgb(246,133,27)" stroke="rgb(246,133,27)" points="399.35461807250977,198.5406705820933 361.54292249679565,198.41074643936008 358.5370759963989,122.81525740027428"></polygon><polygon fill="rgb(192,173,158)" stroke="rgb(192,173,158)" points="330.36412239074707,308.0821961760521 317.7294387817383,295.2151135504246 352.6252956390381,322.5665521323681"></polygon><polygon fill="rgb(118,61,22)" stroke="rgb(118,61,22)" points="474.5412712097168,90.45224833488464 405.19078159332275,122.7742961794138 528.2262496948242,32.76570117473602"></polygon><polygon fill="rgb(118,61,22)" stroke="rgb(118,61,22)" points="528.2262496948242,32.76570117473602 544.0373039245605,79.91899225115776 474.5412712097168,90.45224833488464"></polygon><polygon fill="rgb(192,173,158)" stroke="rgb(192,173,158)" points="403.7930073738098,323.10516652464867 446.1434326171875,296.3686133623123 431.73977851867676,309.0667302310467"></polygon><polygon fill="rgb(215,193,179)" stroke="rgb(215,193,179)" points="351.52639961242676,313.4173735678196 352.6252956390381,322.5665521323681 317.7294387817383,295.2151135504246"></polygon><polygon fill="rgb(228,118,27)" stroke="rgb(228,118,27)" points="354.47796535491943,287.3795197606087 317.7294387817383,295.2151135504246 321.80625343322754,251.21209385991096"></polygon><polygon fill="rgb(215,193,179)" stroke="rgb(215,193,179)" points="317.7294387817383,295.2151135504246 354.47796535491943,287.3795197606087 351.52639961242676,313.4173735678196"></polygon><polygon fill="rgb(246,133,27)" stroke="rgb(246,133,27)" points="292.8885612487793,193.64833517718944 321.80625343322754,251.21209385991096 284.37583923339844,249.1143522709608"></polygon><polygon fill="rgb(215,193,179)" stroke="rgb(215,193,179)" points="403.41525506973267,313.9365078806877 446.1434326171875,296.3686133623123 403.7930073738098,323.10516652464867"></polygon><polygon fill="rgb(228,118,27)" stroke="rgb(228,118,27)" points="400.12804985046387,287.76829670369625 439.51893424987793,251.97296454012394 446.1434326171875,296.3686133623123"></polygon><polygon fill="rgb(215,193,179)" stroke="rgb(215,193,179)" points="446.1434326171875,296.3686133623123 403.41525506973267,313.9365078806877 400.12804985046387,287.76829670369625"></polygon><polygon fill="rgb(228,117,31)" stroke="rgb(228,117,31)" points="292.8885612487793,193.64833517718944 320.6916217803955,222.98975790292025 321.80625343322754,251.21209385991096"></polygon><polygon fill="rgb(246,133,27)" stroke="rgb(246,133,27)" points="478.67154693603516,250.34957268834114 439.51893424987793,251.97296454012394 470.0281734466553,194.21106556348968"></polygon><polygon fill="rgb(205,97,22)" stroke="rgb(205,97,22)" points="320.6916217803955,222.98975790292025 292.8885612487793,193.64833517718944 361.54292249679565,198.41074643936008"></polygon><polygon fill="rgb(228,117,31)" stroke="rgb(228,117,31)" points="470.0281734466553,194.21106556348968 439.51893424987793,251.97296454012394 440.97533226013184,223.57312803715467"></polygon><polygon fill="rgb(205,97,22)" stroke="rgb(205,97,22)" points="399.35461807250977,198.5406705820933 470.0281734466553,194.21106556348968 440.97533226013184,223.57312803715467"></polygon><polygon fill="rgb(192,173,158)" stroke="rgb(192,173,158)" points="352.6252956390381,322.5665521323681 354.808313369751,334.27792051434517 330.36412239074707,308.0821961760521"></polygon><polygon fill="rgb(205,97,22)" stroke="rgb(205,97,22)" points="361.54292249679565,198.41074643936008 345.0601558685303,212.21240252628922 320.6916217803955,222.98975790292025"></polygon><polygon fill="rgb(246,133,27)" stroke="rgb(246,133,27)" points="321.80625343322754,251.21209385991096 320.6916217803955,222.98975790292025 355.067928314209,234.45205749571323"></polygon><polygon fill="rgb(35,52,71)" stroke="rgb(35,52,71)" points="355.067928314209,234.45205749571323 320.6916217803955,222.98975790292025 345.0601558685303,212.21240252628922"></polygon><polygon fill="rgb(192,173,158)" stroke="rgb(192,173,158)" points="431.73977851867676,309.0667302310467 401.3148236274719,334.7984965145588 403.7930073738098,323.10516652464867"></polygon><polygon fill="rgb(205,97,22)" stroke="rgb(205,97,22)" points="440.97533226013184,223.57312803715467 416.1716079711914,212.51303614676 399.35461807250977,198.5406705820933"></polygon><polygon fill="rgb(246,133,27)" stroke="rgb(246,133,27)" points="439.51893424987793,251.97296454012394 405.4176392555237,234.7287172973156 440.97533226013184,223.57312803715467"></polygon><polygon fill="rgb(35,52,71)" stroke="rgb(35,52,71)" points="405.4176392555237,234.7287172973156 416.1716079711914,212.51303614676 440.97533226013184,223.57312803715467"></polygon><polygon fill="rgb(205,97,22)" stroke="rgb(205,97,22)" points="345.0601558685303,212.21240252628922 361.54292249679565,198.41074643936008 355.067928314209,234.45205749571323"></polygon><polygon fill="rgb(205,97,22)" stroke="rgb(205,97,22)" points="416.1716079711914,212.51303614676 405.4176392555237,234.7287172973156 399.35461807250977,198.5406705820933"></polygon><polygon fill="rgb(246,133,27)" stroke="rgb(246,133,27)" points="362.64255237579346,222.2253781557083 361.54292249679565,198.41074643936008 399.35461807250977,198.5406705820933"></polygon><polygon fill="rgb(228,117,31)" stroke="rgb(228,117,31)" points="355.067928314209,234.45205749571323 361.54292249679565,198.41074643936008 362.64255237579346,222.2253781557083"></polygon><polygon fill="rgb(246,133,27)" stroke="rgb(246,133,27)" points="399.35461807250977,198.5406705820933 397.15656566619873,222.39086367934942 362.64255237579346,222.2253781557083"></polygon><polygon fill="rgb(226,118,27)" stroke="rgb(226,118,27)" points="405.4176392555237,234.7287172973156 397.15656566619873,222.39086367934942 399.35461807250977,198.5406705820933"></polygon><polygon fill="rgb(246,133,27)" stroke="rgb(246,133,27)" points="354.47796535491943,287.3795197606087 321.80625343322754,251.21209385991096 355.067928314209,234.45205749571323"></polygon><polygon fill="rgb(246,133,27)" stroke="rgb(246,133,27)" points="405.4176392555237,234.7287172973156 439.51893424987793,251.97296454012394 400.12804985046387,287.76829670369625"></polygon><polygon fill="rgb(246,133,27)" stroke="rgb(246,133,27)" points="355.067928314209,234.45205749571323 360.3242883682251,283.46248984336853 354.47796535491943,287.3795197606087"></polygon><polygon fill="rgb(228,117,31)" stroke="rgb(228,117,31)" points="362.64255237579346,222.2253781557083 360.3242883682251,283.46248984336853 355.067928314209,234.45205749571323"></polygon><polygon fill="rgb(246,133,27)" stroke="rgb(246,133,27)" points="400.12804985046387,287.76829670369625 394.2412462234497,283.743665009737 405.4176392555237,234.7287172973156"></polygon><polygon fill="rgb(228,117,31)" stroke="rgb(228,117,31)" points="397.15656566619873,222.39086367934942 405.4176392555237,234.7287172973156 394.2412462234497,283.743665009737"></polygon><polygon fill="rgb(246,133,27)" stroke="rgb(246,133,27)" points="362.64255237579346,222.2253781557083 397.15656566619873,222.39086367934942 394.2412462234497,283.743665009737"></polygon><polygon fill="rgb(246,133,27)" stroke="rgb(246,133,27)" points="394.2412462234497,283.743665009737 360.3242883682251,283.46248984336853 362.64255237579346,222.2253781557083"></polygon><polygon fill="rgb(192,173,158)" stroke="rgb(192,173,158)" points="354.808313369751,334.27792051434517 352.6252956390381,322.5665521323681 351.52639961242676,313.4173735678196"></polygon><polygon fill="rgb(192,173,158)" stroke="rgb(192,173,158)" points="403.41525506973267,313.9365078806877 403.7930073738098,323.10516652464867 401.3148236274719,334.7984965145588"></polygon><polygon fill="rgb(192,173,158)" stroke="rgb(192,173,158)" points="351.52639961242676,313.4173735678196 354.16370487213135,311.65570083260536 354.808313369751,334.27792051434517"></polygon><polygon fill="rgb(192,173,158)" stroke="rgb(192,173,158)" points="354.808313369751,334.27792051434517 354.16370487213135,311.65570083260536 400.0723671913147,312.11031675338745"></polygon><polygon fill="rgb(192,173,158)" stroke="rgb(192,173,158)" points="400.0723671913147,312.11031675338745 401.3148236274719,334.7984965145588 354.808313369751,334.27792051434517"></polygon><polygon fill="rgb(192,173,158)" stroke="rgb(192,173,158)" points="401.3148236274719,334.7984965145588 400.0723671913147,312.11031675338745 403.41525506973267,313.9365078806877"></polygon><polygon fill="rgb(22,22,22)" stroke="rgb(22,22,22)" points="354.16370487213135,311.65570083260536 351.52639961242676,313.4173735678196 354.47796535491943,287.3795197606087"></polygon><polygon fill="rgb(22,22,22)" stroke="rgb(22,22,22)" points="400.12804985046387,287.76829670369625 403.41525506973267,313.9365078806877 400.0723671913147,312.11031675338745"></polygon><polygon fill="rgb(22,22,22)" stroke="rgb(22,22,22)" points="354.47796535491943,287.3795197606087 355.63507175445557,294.7777171432972 354.16370487213135,311.65570083260536"></polygon><polygon fill="rgb(22,22,22)" stroke="rgb(22,22,22)" points="354.47796535491943,287.3795197606087 360.3242883682251,283.46248984336853 359.35609245300293,290.7143040597439"></polygon><polygon fill="rgb(22,22,22)" stroke="rgb(22,22,22)" points="359.35609245300293,290.7143040597439 355.63507175445557,294.7777171432972 354.47796535491943,287.3795197606087"></polygon><polygon fill="rgb(22,22,22)" stroke="rgb(22,22,22)" points="359.35609245300293,290.7143040597439 360.3242883682251,283.46248984336853 394.2412462234497,283.743665009737"></polygon><polygon fill="rgb(22,22,22)" stroke="rgb(22,22,22)" points="400.0723671913147,312.11031675338745 397.60565757751465,295.1528557240963 400.12804985046387,287.76829670369625"></polygon><polygon fill="rgb(22,22,22)" stroke="rgb(22,22,22)" points="400.12804985046387,287.76829670369625 397.60565757751465,295.1528557240963 393.8525483608246,291.01456716656685"></polygon><polygon fill="rgb(22,22,22)" stroke="rgb(22,22,22)" points="393.8525483608246,291.01456716656685 394.2412462234497,283.743665009737 400.12804985046387,287.76829670369625"></polygon><polygon fill="rgb(22,22,22)" stroke="rgb(22,22,22)" points="394.2412462234497,283.743665009737 393.8525483608246,291.01456716656685 359.35609245300293,290.7143040597439"></polygon><polygon fill="rgb(22,22,22)" stroke="rgb(22,22,22)" points="400.0723671913147,312.11031675338745 354.16370487213135,311.65570083260536 355.63507175445557,294.7777171432972"></polygon><polygon fill="rgb(22,22,22)" stroke="rgb(22,22,22)" points="355.63507175445557,294.7777171432972 397.60565757751465,295.1528557240963 400.0723671913147,312.11031675338745"></polygon><polygon fill="rgb(22,22,22)" stroke="rgb(22,22,22)" points="393.8525483608246,291.01456716656685 397.60565757751465,295.1528557240963 355.63507175445557,294.7777171432972"></polygon><polygon fill="rgb(22,22,22)" stroke="rgb(22,22,22)" points="355.63507175445557,294.7777171432972 359.35609245300293,290.7143040597439 393.8525483608246,291.01456716656685"></polygon></svg>