<?xml version="1.0" encoding="iso-8859-1"?>
<!-- Generator: Adobe Illustrator 19.0.0, SVG Export Plug-In . SVG Version: 6.00 Build 0)  -->
<svg version="1.1" id="Layer_1" xmlns="http://www.w3.org/2000/svg" xmlns:xlink="http://www.w3.org/1999/xlink" x="0px" y="0px"
	 viewBox="0 0 512.001 512.001" style="enable-background:new 0 0 512.001 512.001;" xml:space="preserve">
<g>
	<g>
		<path d="M337.388,128.954h-60.572v-26.557c0-14.855,12.085-26.94,26.94-26.94V60.25c-23.241,0-42.148,18.907-42.148,42.148v26.557
			h-11.217v-26.557c0-29.425,23.939-53.365,53.366-53.365V33.825c-37.812,0-68.574,30.761-68.574,68.573v26.557h-60.572
			C78.331,128.954,0,207.284,0,303.565c0,96.281,78.331,174.612,174.613,174.612h162.777c96.281,0,174.612-78.33,174.612-174.612
			C512,207.284,433.67,128.954,337.388,128.954z M248.396,462.968h-33.091c-30.146,0.001-58.336-39.825-70.143-99.102l-14.915,2.971
			c8.76,43.974,25.938,77.825,47.382,96.132h-3.017c-87.896,0-159.404-71.508-159.404-159.404
			c0-87.895,71.508-159.403,159.405-159.403h2.905c-10.449,8.948-19.955,21.705-28.058,37.911
			c-16.289,32.579-25.26,75.725-25.26,121.492c0,14.476,0.907,28.857,2.696,42.745l15.083-1.943
			c-1.706-13.247-2.571-26.974-2.571-40.802c0-43.451,8.401-84.182,23.655-114.691c14.416-28.833,32.97-44.713,52.244-44.713h19.878
			h13.213V462.968z M296.695,462.97h-33.091v-0.001V144.162h13.213h19.879c19.273,0,37.826,15.879,52.243,44.713
			c15.253,30.509,23.654,71.24,23.654,114.691c0,43.452-8.401,84.183-23.654,114.692C334.521,447.091,315.968,462.97,296.695,462.97
			z M337.388,462.969h-2.905c10.45-8.948,19.955-21.704,28.057-37.911c16.289-32.579,25.26-75.726,25.26-121.493
			c0-45.766-8.972-88.913-25.26-121.492c-8.103-16.206-17.609-28.963-28.057-37.911h2.905c87.895,0,159.404,71.508,159.404,159.403
			C496.792,391.461,425.284,462.969,337.388,462.969z"/>
	</g>
</g>
<g>
	<g>
		<path d="M462.694,232.267c-11.977-20.971-29.175-38.768-49.735-51.468l-7.992,12.939c38.452,23.753,61.409,64.809,61.409,109.827
			h15.208C481.584,278.559,475.051,253.905,462.694,232.267z"/>
	</g>
</g>
<g>
</g>
<g>
</g>
<g>
</g>
<g>
</g>
<g>
</g>
<g>
</g>
<g>
</g>
<g>
</g>
<g>
</g>
<g>
</g>
<g>
</g>
<g>
</g>
<g>
</g>
<g>
</g>
<g>
</g>
</svg>
