<?xml version="1.0" encoding="UTF-8" standalone="no"?><!-- Generator: Gravit.io --><svg xmlns="http://www.w3.org/2000/svg" xmlns:xlink="http://www.w3.org/1999/xlink" style="isolation:isolate" viewBox="613 438.097 351.66 262.903" width="351.66pt" height="262.903pt"><defs><clipPath id="_clipPath_6F5SAxKT09c5i1hcsbvVMcDouPNAJInn"><rect x="613" y="438.097" width="351.66" height="262.903"/></clipPath></defs><g clip-path="url(#_clipPath_6F5SAxKT09c5i1hcsbvVMcDouPNAJInn)"><path d=" M 897.039 513.577 L 860.966 513.577 L 879.007 544.825 L 897.039 513.577 L 897.039 513.577 L 897.039 513.577 L 897.039 513.577 L 897.039 513.577 L 897.039 513.577 L 897.039 513.577 L 897.039 513.577 L 897.039 513.577 L 897.039 513.577 L 897.039 513.577 L 897.039 513.577 L 897.039 513.577 L 897.039 513.577 L 897.039 513.577 L 897.039 513.577 L 897.039 513.577 L 897.039 513.577 L 897.039 513.577 L 897.039 513.577 L 897.039 513.577 L 897.039 513.577 L 897.039 513.577 L 897.039 513.577 L 897.039 513.577 L 897.039 513.577 L 897.039 513.577 L 897.039 513.577 L 897.039 513.577 L 897.039 513.577 L 897.039 513.577 L 897.039 513.577 L 897.039 513.577 L 897.039 513.577 L 897.039 513.577 L 897.039 513.577 L 897.039 513.577 L 897.039 513.577 L 897.039 513.577 L 897.039 513.577 L 897.039 513.577 L 897.039 513.577 L 897.039 513.577 L 897.039 513.577 L 897.039 513.577 L 897.039 513.577 L 897.039 513.577 L 897.039 513.577 L 897.039 513.577 Z  M 716.694 513.577 L 680.622 513.577 L 698.653 544.825 L 716.694 513.577 L 716.694 513.577 L 716.694 513.577 L 716.694 513.577 L 716.694 513.577 L 716.694 513.577 L 716.694 513.577 L 716.694 513.577 L 716.694 513.577 L 716.694 513.577 L 716.694 513.577 L 716.694 513.577 L 716.694 513.577 L 716.694 513.577 L 716.694 513.577 L 716.694 513.577 L 716.694 513.577 L 716.694 513.577 L 716.694 513.577 L 716.694 513.577 L 716.694 513.577 L 716.694 513.577 L 716.694 513.577 L 716.694 513.577 L 716.694 513.577 L 716.694 513.577 L 716.694 513.577 L 716.694 513.577 L 716.694 513.577 L 716.694 513.577 L 716.694 513.577 L 716.694 513.577 L 716.694 513.577 L 716.694 513.577 L 716.694 513.577 L 716.694 513.577 L 716.694 513.577 L 716.694 513.577 L 716.694 513.577 L 716.694 513.577 L 716.694 513.577 L 716.694 513.577 L 716.694 513.577 L 716.694 513.577 L 716.694 513.577 L 716.694 513.577 L 716.694 513.577 L 716.694 513.577 L 716.694 513.577 Z  M 635.538 513.577 L 653.569 544.825 L 671.61 513.577 L 635.538 513.577 L 635.538 513.577 L 635.538 513.577 L 635.538 513.577 L 635.538 513.577 L 635.538 513.577 L 635.538 513.577 L 635.538 513.577 L 635.538 513.577 L 635.538 513.577 L 635.538 513.577 L 635.538 513.577 L 635.538 513.577 L 635.538 513.577 L 635.538 513.577 L 635.538 513.577 L 635.538 513.577 L 635.538 513.577 L 635.538 513.577 L 635.538 513.577 L 635.538 513.577 L 635.538 513.577 L 635.538 513.577 L 635.538 513.577 L 635.538 513.577 L 635.538 513.577 L 635.538 513.577 L 635.538 513.577 L 635.538 513.577 L 635.538 513.577 L 635.538 513.577 L 635.538 513.577 L 635.538 513.577 L 635.538 513.577 L 635.538 513.577 L 635.538 513.577 L 635.538 513.577 L 635.538 513.577 L 635.538 513.577 L 635.538 513.577 L 635.538 513.577 L 635.538 513.577 L 635.538 513.577 L 635.538 513.577 L 635.538 513.577 L 635.538 513.577 L 635.538 513.577 L 635.538 513.577 Z  M 694.148 547.424 L 676.116 516.185 L 658.084 547.424 L 694.148 547.424 L 694.148 547.424 L 694.148 547.424 L 694.148 547.424 L 694.148 547.424 L 694.148 547.424 L 694.148 547.424 L 694.148 547.424 L 694.148 547.424 L 694.148 547.424 L 694.148 547.424 L 694.148 547.424 L 694.148 547.424 L 694.148 547.424 L 694.148 547.424 L 694.148 547.424 L 694.148 547.424 L 694.148 547.424 L 694.148 547.424 L 694.148 547.424 L 694.148 547.424 L 694.148 547.424 L 694.148 547.424 L 694.148 547.424 L 694.148 547.424 L 694.148 547.424 L 694.148 547.424 L 694.148 547.424 L 694.148 547.424 L 694.148 547.424 L 694.148 547.424 L 694.148 547.424 L 694.148 547.424 L 694.148 547.424 L 694.148 547.424 L 694.148 547.424 L 694.148 547.424 L 694.148 547.424 L 694.148 547.424 L 694.148 547.424 L 694.148 547.424 L 694.148 547.424 L 694.148 547.424 L 694.148 547.424 L 694.148 547.424 L 694.148 547.424 L 694.148 547.424 Z  M 739.24 547.424 L 721.2 516.185 L 703.168 547.424 L 739.24 547.424 L 739.24 547.424 L 739.24 547.424 L 739.24 547.424 L 739.24 547.424 L 739.24 547.424 L 739.24 547.424 L 739.24 547.424 L 739.24 547.424 L 739.24 547.424 L 739.24 547.424 L 739.24 547.424 L 739.24 547.424 L 739.24 547.424 L 739.24 547.424 L 739.24 547.424 L 739.24 547.424 L 739.24 547.424 L 739.24 547.424 L 739.24 547.424 L 739.24 547.424 L 739.24 547.424 L 739.24 547.424 L 739.24 547.424 L 739.24 547.424 L 739.24 547.424 L 739.24 547.424 L 739.24 547.424 L 739.24 547.424 L 739.24 547.424 L 739.24 547.424 L 739.24 547.424 L 739.24 547.424 L 739.24 547.424 L 739.24 547.424 L 739.24 547.424 L 739.24 547.424 L 739.24 547.424 L 739.24 547.424 L 739.24 547.424 L 739.24 547.424 L 739.24 547.424 L 739.24 547.424 L 739.24 547.424 L 739.24 547.424 L 739.24 547.424 Z  M 856.46 516.185 L 838.42 547.424 L 874.492 547.424 L 856.46 516.185 L 856.46 516.185 L 856.46 516.185 L 856.46 516.185 L 856.46 516.185 L 856.46 516.185 L 856.46 516.185 L 856.46 516.185 L 856.46 516.185 L 856.46 516.185 L 856.46 516.185 L 856.46 516.185 L 856.46 516.185 L 856.46 516.185 L 856.46 516.185 L 856.46 516.185 L 856.46 516.185 L 856.46 516.185 L 856.46 516.185 L 856.46 516.185 L 856.46 516.185 L 856.46 516.185 L 856.46 516.185 L 856.46 516.185 L 856.46 516.185 L 856.46 516.185 L 856.46 516.185 L 856.46 516.185 L 856.46 516.185 L 856.46 516.185 L 856.46 516.185 L 856.46 516.185 L 856.46 516.185 L 856.46 516.185 L 856.46 516.185 L 856.46 516.185 L 856.46 516.185 L 856.46 516.185 L 856.46 516.185 L 856.46 516.185 L 856.46 516.185 L 856.46 516.185 L 856.46 516.185 L 856.46 516.185 L 856.46 516.185 Z  M 919.576 547.424 L 901.544 516.185 L 883.513 547.424 L 919.576 547.424 L 919.576 547.424 L 919.576 547.424 L 919.576 547.424 L 919.576 547.424 L 919.576 547.424 L 919.576 547.424 L 919.576 547.424 L 919.576 547.424 L 919.576 547.424 L 919.576 547.424 L 919.576 547.424 L 919.576 547.424 L 919.576 547.424 L 919.576 547.424 L 919.576 547.424 L 919.576 547.424 L 919.576 547.424 L 919.576 547.424 L 919.576 547.424 L 919.576 547.424 L 919.576 547.424 L 919.576 547.424 L 919.576 547.424 L 919.576 547.424 L 919.576 547.424 L 919.576 547.424 L 919.576 547.424 L 919.576 547.424 L 919.576 547.424 L 919.576 547.424 L 919.576 547.424 L 919.576 547.424 L 919.576 547.424 L 919.576 547.424 L 919.576 547.424 L 919.576 547.424 L 919.576 547.424 L 919.576 547.424 L 919.576 547.424 L 919.576 547.424 L 919.576 547.424 L 919.576 547.424 L 919.576 547.424 Z  M 874.492 552.63 L 838.42 552.63 L 856.46 583.86 L 874.492 552.63 L 874.492 552.63 L 874.492 552.63 L 874.492 552.63 L 874.492 552.63 L 874.492 552.63 L 874.492 552.63 L 874.492 552.63 L 874.492 552.63 L 874.492 552.63 L 874.492 552.63 L 874.492 552.63 L 874.492 552.63 L 874.492 552.63 L 874.492 552.63 L 874.492 552.63 L 874.492 552.63 L 874.492 552.63 L 874.492 552.63 L 874.492 552.63 L 874.492 552.63 L 874.492 552.63 L 874.492 552.63 L 874.492 552.63 L 874.492 552.63 L 874.492 552.63 L 874.492 552.63 L 874.492 552.63 L 874.492 552.63 L 874.492 552.63 L 874.492 552.63 L 874.492 552.63 L 874.492 552.63 L 874.492 552.63 L 874.492 552.63 L 874.492 552.63 L 874.492 552.63 L 874.492 552.63 L 874.492 552.63 L 874.492 552.63 L 874.492 552.63 L 874.492 552.63 L 874.492 552.63 Z  M 919.576 552.63 L 883.513 552.63 L 901.544 583.86 L 919.576 552.63 L 919.576 552.63 L 919.576 552.63 L 919.576 552.63 L 919.576 552.63 L 919.576 552.63 L 919.576 552.63 L 919.576 552.63 L 919.576 552.63 L 919.576 552.63 L 919.576 552.63 L 919.576 552.63 L 919.576 552.63 L 919.576 552.63 L 919.576 552.63 L 919.576 552.63 L 919.576 552.63 L 919.576 552.63 L 919.576 552.63 L 919.576 552.63 L 919.576 552.63 L 919.576 552.63 L 919.576 552.63 L 919.576 552.63 L 919.576 552.63 L 919.576 552.63 L 919.576 552.63 L 919.576 552.63 L 919.576 552.63 L 919.576 552.63 L 919.576 552.63 L 919.576 552.63 L 919.576 552.63 L 919.576 552.63 L 919.576 552.63 L 919.576 552.63 L 919.576 552.63 L 919.576 552.63 L 919.576 552.63 L 919.576 552.63 L 919.576 552.63 L 919.576 552.63 Z  M 829.408 552.63 L 793.336 552.63 L 811.377 583.86 L 829.408 552.63 L 829.408 552.63 L 829.408 552.63 L 829.408 552.63 L 829.408 552.63 L 829.408 552.63 L 829.408 552.63 L 829.408 552.63 L 829.408 552.63 L 829.408 552.63 L 829.408 552.63 L 829.408 552.63 L 829.408 552.63 L 829.408 552.63 L 829.408 552.63 L 829.408 552.63 L 829.408 552.63 L 829.408 552.63 L 829.408 552.63 L 829.408 552.63 L 829.408 552.63 L 829.408 552.63 L 829.408 552.63 L 829.408 552.63 L 829.408 552.63 L 829.408 552.63 L 829.408 552.63 L 829.408 552.63 L 829.408 552.63 L 829.408 552.63 L 829.408 552.63 L 829.408 552.63 L 829.408 552.63 L 829.408 552.63 L 829.408 552.63 L 829.408 552.63 L 829.408 552.63 L 829.408 552.63 L 829.408 552.63 L 829.408 552.63 L 829.408 552.63 Z  M 784.324 552.63 L 748.252 552.63 L 766.284 583.86 L 784.324 552.63 L 784.324 552.63 L 784.324 552.63 L 784.324 552.63 L 784.324 552.63 L 784.324 552.63 L 784.324 552.63 L 784.324 552.63 L 784.324 552.63 L 784.324 552.63 L 784.324 552.63 L 784.324 552.63 L 784.324 552.63 L 784.324 552.63 L 784.324 552.63 L 784.324 552.63 L 784.324 552.63 L 784.324 552.63 L 784.324 552.63 L 784.324 552.63 L 784.324 552.63 L 784.324 552.63 L 784.324 552.63 L 784.324 552.63 L 784.324 552.63 L 784.324 552.63 L 784.324 552.63 L 784.324 552.63 L 784.324 552.63 L 784.324 552.63 L 784.324 552.63 L 784.324 552.63 L 784.324 552.63 L 784.324 552.63 L 784.324 552.63 L 784.324 552.63 L 784.324 552.63 L 784.324 552.63 L 784.324 552.63 L 784.324 552.63 Z  M 739.24 552.63 L 703.168 552.63 L 721.2 583.86 L 739.24 552.63 L 739.24 552.63 L 739.24 552.63 L 739.24 552.63 L 739.24 552.63 L 739.24 552.63 L 739.24 552.63 L 739.24 552.63 L 739.24 552.63 L 739.24 552.63 L 739.24 552.63 L 739.24 552.63 L 739.24 552.63 L 739.24 552.63 L 739.24 552.63 L 739.24 552.63 L 739.24 552.63 L 739.24 552.63 L 739.24 552.63 L 739.24 552.63 L 739.24 552.63 L 739.24 552.63 L 739.24 552.63 L 739.24 552.63 L 739.24 552.63 L 739.24 552.63 L 739.24 552.63 L 739.24 552.63 L 739.24 552.63 L 739.24 552.63 L 739.24 552.63 L 739.24 552.63 L 739.24 552.63 L 739.24 552.63 L 739.24 552.63 L 739.24 552.63 L 739.24 552.63 L 739.24 552.63 L 739.24 552.63 Z  M 694.148 552.63 L 658.084 552.63 L 676.116 583.86 L 694.148 552.63 L 694.148 552.63 L 694.148 552.63 L 694.148 552.63 L 694.148 552.63 L 694.148 552.63 L 694.148 552.63 L 694.148 552.63 L 694.148 552.63 L 694.148 552.63 L 694.148 552.63 L 694.148 552.63 L 694.148 552.63 L 694.148 552.63 L 694.148 552.63 L 694.148 552.63 L 694.148 552.63 L 694.148 552.63 L 694.148 552.63 L 694.148 552.63 L 694.148 552.63 L 694.148 552.63 L 694.148 552.63 L 694.148 552.63 L 694.148 552.63 L 694.148 552.63 L 694.148 552.63 L 694.148 552.63 L 694.148 552.63 L 694.148 552.63 L 694.148 552.63 L 694.148 552.63 L 694.148 552.63 L 694.148 552.63 L 694.148 552.63 L 694.148 552.63 L 694.148 552.63 L 694.148 552.63 Z  M 613 552.63 L 631.032 583.86 L 649.064 552.63 L 613 552.63 L 613 552.63 L 613 552.63 L 613 552.63 L 613 552.63 L 613 552.63 L 613 552.63 L 613 552.63 L 613 552.63 L 613 552.63 L 613 552.63 L 613 552.63 L 613 552.63 L 613 552.63 L 613 552.63 L 613 552.63 L 613 552.63 L 613 552.63 L 613 552.63 L 613 552.63 L 613 552.63 L 613 552.63 L 613 552.63 L 613 552.63 L 613 552.63 L 613 552.63 L 613 552.63 L 613 552.63 L 613 552.63 L 613 552.63 L 613 552.63 L 613 552.63 L 613 552.63 L 613 552.63 L 613 552.63 L 613 552.63 L 613 552.63 Z  M 671.61 586.467 L 653.569 555.229 L 635.538 586.467 L 671.61 586.467 L 671.61 586.467 L 671.61 586.467 L 671.61 586.467 L 671.61 586.467 L 671.61 586.467 L 671.61 586.467 L 671.61 586.467 L 671.61 586.467 L 671.61 586.467 L 671.61 586.467 L 671.61 586.467 L 671.61 586.467 L 671.61 586.467 L 671.61 586.467 L 671.61 586.467 L 671.61 586.467 L 671.61 586.467 L 671.61 586.467 L 671.61 586.467 L 671.61 586.467 L 671.61 586.467 L 671.61 586.467 L 671.61 586.467 L 671.61 586.467 L 671.61 586.467 L 671.61 586.467 L 671.61 586.467 L 671.61 586.467 L 671.61 586.467 L 671.61 586.467 L 671.61 586.467 L 671.61 586.467 L 671.61 586.467 L 671.61 586.467 L 671.61 586.467 Z  M 698.653 555.229 L 680.622 586.467 L 716.694 586.467 L 698.653 555.229 L 698.653 555.229 L 698.653 555.229 L 698.653 555.229 L 698.653 555.229 L 698.653 555.229 L 698.653 555.229 L 698.653 555.229 L 698.653 555.229 L 698.653 555.229 L 698.653 555.229 L 698.653 555.229 L 698.653 555.229 L 698.653 555.229 L 698.653 555.229 L 698.653 555.229 L 698.653 555.229 L 698.653 555.229 L 698.653 555.229 L 698.653 555.229 L 698.653 555.229 L 698.653 555.229 L 698.653 555.229 L 698.653 555.229 L 698.653 555.229 L 698.653 555.229 L 698.653 555.229 L 698.653 555.229 L 698.653 555.229 L 698.653 555.229 L 698.653 555.229 L 698.653 555.229 L 698.653 555.229 L 698.653 555.229 L 698.653 555.229 Z  M 761.778 586.467 L 743.746 555.229 L 725.705 586.467 L 761.778 586.467 L 761.778 586.467 L 761.778 586.467 L 761.778 586.467 L 761.778 586.467 L 761.778 586.467 L 761.778 586.467 L 761.778 586.467 L 761.778 586.467 L 761.778 586.467 L 761.778 586.467 L 761.778 586.467 L 761.778 586.467 L 761.778 586.467 L 761.778 586.467 L 761.778 586.467 L 761.778 586.467 L 761.778 586.467 L 761.778 586.467 L 761.778 586.467 L 761.778 586.467 L 761.778 586.467 L 761.778 586.467 L 761.778 586.467 L 761.778 586.467 L 761.778 586.467 L 761.778 586.467 L 761.778 586.467 L 761.778 586.467 L 761.778 586.467 L 761.778 586.467 L 761.778 586.467 L 761.778 586.467 L 761.778 586.467 Z  M 788.83 555.229 L 770.798 586.467 L 806.862 586.467 L 788.83 555.229 L 788.83 555.229 L 788.83 555.229 L 788.83 555.229 L 788.83 555.229 L 788.83 555.229 L 788.83 555.229 L 788.83 555.229 L 788.83 555.229 L 788.83 555.229 L 788.83 555.229 L 788.83 555.229 L 788.83 555.229 L 788.83 555.229 L 788.83 555.229 L 788.83 555.229 L 788.83 555.229 L 788.83 555.229 L 788.83 555.229 L 788.83 555.229 L 788.83 555.229 L 788.83 555.229 L 788.83 555.229 L 788.83 555.229 L 788.83 555.229 L 788.83 555.229 L 788.83 555.229 L 788.83 555.229 L 788.83 555.229 L 788.83 555.229 L 788.83 555.229 L 788.83 555.229 L 788.83 555.229 Z  M 851.955 586.467 L 833.914 555.229 L 815.882 586.467 L 851.955 586.467 L 851.955 586.467 L 851.955 586.467 L 851.955 586.467 L 851.955 586.467 L 851.955 586.467 L 851.955 586.467 L 851.955 586.467 L 851.955 586.467 L 851.955 586.467 L 851.955 586.467 L 851.955 586.467 L 851.955 586.467 L 851.955 586.467 L 851.955 586.467 L 851.955 586.467 L 851.955 586.467 L 851.955 586.467 L 851.955 586.467 L 851.955 586.467 L 851.955 586.467 L 851.955 586.467 L 851.955 586.467 L 851.955 586.467 L 851.955 586.467 L 851.955 586.467 L 851.955 586.467 L 851.955 586.467 L 851.955 586.467 L 851.955 586.467 L 851.955 586.467 L 851.955 586.467 Z  M 860.966 586.467 L 897.039 586.467 L 879.007 555.229 L 860.966 586.467 L 860.966 586.467 L 860.966 586.467 L 860.966 586.467 L 860.966 586.467 L 860.966 586.467 L 860.966 586.467 L 860.966 586.467 L 860.966 586.467 L 860.966 586.467 L 860.966 586.467 L 860.966 586.467 L 860.966 586.467 L 860.966 586.467 L 860.966 586.467 L 860.966 586.467 L 860.966 586.467 L 860.966 586.467 L 860.966 586.467 L 860.966 586.467 L 860.966 586.467 L 860.966 586.467 L 860.966 586.467 L 860.966 586.467 L 860.966 586.467 L 860.966 586.467 L 860.966 586.467 L 860.966 586.467 L 860.966 586.467 L 860.966 586.467 L 860.966 586.467 Z  M 942.123 513.577 L 906.05 513.577 L 924.091 544.825 L 942.123 513.577 L 942.123 513.577 L 942.123 513.577 L 942.123 513.577 L 942.123 513.577 L 942.123 513.577 L 942.123 513.577 L 942.123 513.577 L 942.123 513.577 L 942.123 513.577 L 942.123 513.577 L 942.123 513.577 L 942.123 513.577 L 942.123 513.577 L 942.123 513.577 L 942.123 513.577 L 942.123 513.577 L 942.123 513.577 L 942.123 513.577 L 942.123 513.577 L 942.123 513.577 L 942.123 513.577 L 942.123 513.577 L 942.123 513.577 L 942.123 513.577 L 942.123 513.577 L 942.123 513.577 L 942.123 513.577 L 942.123 513.577 L 942.123 513.577 Z  M 906.05 586.467 L 942.123 586.467 L 924.091 555.229 L 906.05 586.467 L 906.05 586.467 L 906.05 586.467 L 906.05 586.467 L 906.05 586.467 L 906.05 586.467 L 906.05 586.467 L 906.05 586.467 L 906.05 586.467 L 906.05 586.467 L 906.05 586.467 L 906.05 586.467 L 906.05 586.467 L 906.05 586.467 L 906.05 586.467 L 906.05 586.467 L 906.05 586.467 L 906.05 586.467 L 906.05 586.467 L 906.05 586.467 L 906.05 586.467 L 906.05 586.467 L 906.05 586.467 L 906.05 586.467 L 906.05 586.467 L 906.05 586.467 L 906.05 586.467 L 906.05 586.467 L 906.05 586.467 Z  M 649.064 474.534 L 613 474.534 L 631.032 505.772 L 649.064 474.534 L 649.064 474.534 L 649.064 474.534 L 649.064 474.534 L 649.064 474.534 L 649.064 474.534 L 649.064 474.534 L 649.064 474.534 L 649.064 474.534 L 649.064 474.534 L 649.064 474.534 L 649.064 474.534 L 649.064 474.534 L 649.064 474.534 L 649.064 474.534 L 649.064 474.534 L 649.064 474.534 L 649.064 474.534 L 649.064 474.534 L 649.064 474.534 L 649.064 474.534 L 649.064 474.534 L 649.064 474.534 L 649.064 474.534 L 649.064 474.534 L 649.064 474.534 L 649.064 474.534 L 649.064 474.534 Z  M 671.61 508.38 L 653.569 477.141 L 635.538 508.38 L 671.61 508.38 L 671.61 508.38 L 671.61 508.38 L 671.61 508.38 L 671.61 508.38 L 671.61 508.38 L 671.61 508.38 L 671.61 508.38 L 671.61 508.38 L 671.61 508.38 L 671.61 508.38 L 671.61 508.38 L 671.61 508.38 L 671.61 508.38 L 671.61 508.38 L 671.61 508.38 L 671.61 508.38 L 671.61 508.38 L 671.61 508.38 L 671.61 508.38 L 671.61 508.38 L 671.61 508.38 L 671.61 508.38 L 671.61 508.38 L 671.61 508.38 L 671.61 508.38 L 671.61 508.38 Z  M 770.798 513.577 L 788.83 544.825 L 806.862 513.577 L 770.798 513.577 L 770.798 513.577 L 770.798 513.577 L 770.798 513.577 L 770.798 513.577 L 770.798 513.577 L 770.798 513.577 L 770.798 513.577 L 770.798 513.577 L 770.798 513.577 L 770.798 513.577 L 770.798 513.577 L 770.798 513.577 L 770.798 513.577 L 770.798 513.577 L 770.798 513.577 L 770.798 513.577 L 770.798 513.577 L 770.798 513.577 L 770.798 513.577 L 770.798 513.577 L 770.798 513.577 L 770.798 513.577 L 770.798 513.577 L 770.798 513.577 L 770.798 513.577 Z  M 766.284 438.097 L 748.252 469.327 L 784.324 469.327 L 766.284 438.097 L 766.284 438.097 L 766.284 438.097 L 766.284 438.097 L 766.284 438.097 L 766.284 438.097 L 766.284 438.097 L 766.284 438.097 L 766.284 438.097 L 766.284 438.097 L 766.284 438.097 L 766.284 438.097 L 766.284 438.097 L 766.284 438.097 L 766.284 438.097 L 766.284 438.097 L 766.284 438.097 L 766.284 438.097 L 766.284 438.097 L 766.284 438.097 L 766.284 438.097 L 766.284 438.097 L 766.284 438.097 L 766.284 438.097 L 766.284 438.097 Z  M 811.377 438.097 L 793.336 469.327 L 829.408 469.327 L 811.377 438.097 L 811.377 438.097 L 811.377 438.097 L 811.377 438.097 L 811.377 438.097 L 811.377 438.097 L 811.377 438.097 L 811.377 438.097 L 811.377 438.097 L 811.377 438.097 L 811.377 438.097 L 811.377 438.097 L 811.377 438.097 L 811.377 438.097 L 811.377 438.097 L 811.377 438.097 L 811.377 438.097 L 811.377 438.097 L 811.377 438.097 L 811.377 438.097 L 811.377 438.097 L 811.377 438.097 L 811.377 438.097 L 811.377 438.097 Z  M 829.408 474.534 L 793.336 474.534 L 811.377 505.772 L 829.408 474.534 L 829.408 474.534 L 829.408 474.534 L 829.408 474.534 L 829.408 474.534 L 829.408 474.534 L 829.408 474.534 L 829.408 474.534 L 829.408 474.534 L 829.408 474.534 L 829.408 474.534 L 829.408 474.534 L 829.408 474.534 L 829.408 474.534 L 829.408 474.534 L 829.408 474.534 L 829.408 474.534 L 829.408 474.534 L 829.408 474.534 L 829.408 474.534 L 829.408 474.534 L 829.408 474.534 L 829.408 474.534 Z  M 784.324 474.534 L 748.252 474.534 L 766.284 505.772 L 784.324 474.534 L 784.324 474.534 L 784.324 474.534 L 784.324 474.534 L 784.324 474.534 L 784.324 474.534 L 784.324 474.534 L 784.324 474.534 L 784.324 474.534 L 784.324 474.534 L 784.324 474.534 L 784.324 474.534 L 784.324 474.534 L 784.324 474.534 L 784.324 474.534 L 784.324 474.534 L 784.324 474.534 L 784.324 474.534 L 784.324 474.534 L 784.324 474.534 L 784.324 474.534 L 784.324 474.534 Z  M 806.862 508.38 L 788.83 477.141 L 770.798 508.38 L 806.862 508.38 L 806.862 508.38 L 806.862 508.38 L 806.862 508.38 L 806.862 508.38 L 806.862 508.38 L 806.862 508.38 L 806.862 508.38 L 806.862 508.38 L 806.862 508.38 L 806.862 508.38 L 806.862 508.38 L 806.862 508.38 L 806.862 508.38 L 806.862 508.38 L 806.862 508.38 L 806.862 508.38 L 806.862 508.38 L 806.862 508.38 L 806.862 508.38 L 806.862 508.38 Z  M 924.091 477.141 L 906.05 508.38 L 942.123 508.38 L 924.091 477.141 L 924.091 477.141 L 924.091 477.141 L 924.091 477.141 L 924.091 477.141 L 924.091 477.141 L 924.091 477.141 L 924.091 477.141 L 924.091 477.141 L 924.091 477.141 L 924.091 477.141 L 924.091 477.141 L 924.091 477.141 L 924.091 477.141 L 924.091 477.141 L 924.091 477.141 L 924.091 477.141 L 924.091 477.141 L 924.091 477.141 L 924.091 477.141 Z  M 860.966 591.665 L 879.007 622.912 L 897.039 591.665 L 860.966 591.665 L 860.966 591.665 L 860.966 591.665 L 860.966 591.665 L 860.966 591.665 L 860.966 591.665 L 860.966 591.665 L 860.966 591.665 L 860.966 591.665 L 860.966 591.665 L 860.966 591.665 L 860.966 591.665 L 860.966 591.665 L 860.966 591.665 L 860.966 591.665 L 860.966 591.665 L 860.966 591.665 L 860.966 591.665 L 860.966 591.665 Z  M 815.882 591.665 L 833.914 622.912 L 851.955 591.665 L 815.882 591.665 L 815.882 591.665 L 815.882 591.665 L 815.882 591.665 L 815.882 591.665 L 815.882 591.665 L 815.882 591.665 L 815.882 591.665 L 815.882 591.665 L 815.882 591.665 L 815.882 591.665 L 815.882 591.665 L 815.882 591.665 L 815.882 591.665 L 815.882 591.665 L 815.882 591.665 L 815.882 591.665 L 815.882 591.665 Z  M 806.862 591.665 L 770.798 591.665 L 788.83 622.912 L 806.862 591.665 L 806.862 591.665 L 806.862 591.665 L 806.862 591.665 L 806.862 591.665 L 806.862 591.665 L 806.862 591.665 L 806.862 591.665 L 806.862 591.665 L 806.862 591.665 L 806.862 591.665 L 806.862 591.665 L 806.862 591.665 L 806.862 591.665 L 806.862 591.665 L 806.862 591.665 L 806.862 591.665 Z  M 725.705 591.665 L 743.746 622.912 L 761.778 591.665 L 725.705 591.665 L 725.705 591.665 L 725.705 591.665 L 725.705 591.665 L 725.705 591.665 L 725.705 591.665 L 725.705 591.665 L 725.705 591.665 L 725.705 591.665 L 725.705 591.665 L 725.705 591.665 L 725.705 591.665 L 725.705 591.665 L 725.705 591.665 L 725.705 591.665 L 725.705 591.665 Z  M 680.622 591.665 L 698.653 622.912 L 716.694 591.665 L 680.622 591.665 L 680.622 591.665 L 680.622 591.665 L 680.622 591.665 L 680.622 591.665 L 680.622 591.665 L 680.622 591.665 L 680.622 591.665 L 680.622 591.665 L 680.622 591.665 L 680.622 591.665 L 680.622 591.665 L 680.622 591.665 L 680.622 591.665 L 680.622 591.665 Z  M 635.538 591.665 L 653.569 622.912 L 671.61 591.665 L 635.538 591.665 L 635.538 591.665 L 635.538 591.665 L 635.538 591.665 L 635.538 591.665 L 635.538 591.665 L 635.538 591.665 L 635.538 591.665 L 635.538 591.665 L 635.538 591.665 L 635.538 591.665 L 635.538 591.665 L 635.538 591.665 L 635.538 591.665 Z  M 658.084 625.52 L 694.148 625.52 L 676.116 594.264 L 658.084 625.52 L 658.084 625.52 L 658.084 625.52 L 658.084 625.52 L 658.084 625.52 L 658.084 625.52 L 658.084 625.52 L 658.084 625.52 L 658.084 625.52 L 658.084 625.52 L 658.084 625.52 L 658.084 625.52 L 658.084 625.52 Z  M 703.168 625.52 L 739.24 625.52 L 721.2 594.264 L 703.168 625.52 L 703.168 625.52 L 703.168 625.52 L 703.168 625.52 L 703.168 625.52 L 703.168 625.52 L 703.168 625.52 L 703.168 625.52 L 703.168 625.52 L 703.168 625.52 L 703.168 625.52 L 703.168 625.52 Z  M 748.252 625.52 L 784.324 625.52 L 766.284 594.264 L 748.252 625.52 L 748.252 625.52 L 748.252 625.52 L 748.252 625.52 L 748.252 625.52 L 748.252 625.52 L 748.252 625.52 L 748.252 625.52 L 748.252 625.52 L 748.252 625.52 L 748.252 625.52 Z  M 793.336 625.52 L 829.408 625.52 L 811.377 594.264 L 793.336 625.52 L 793.336 625.52 L 793.336 625.52 L 793.336 625.52 L 793.336 625.52 L 793.336 625.52 L 793.336 625.52 L 793.336 625.52 L 793.336 625.52 L 793.336 625.52 Z  M 838.42 625.52 L 874.492 625.52 L 856.46 594.264 L 838.42 625.52 L 838.42 625.52 L 838.42 625.52 L 838.42 625.52 L 838.42 625.52 L 838.42 625.52 L 838.42 625.52 L 838.42 625.52 L 838.42 625.52 Z  M 883.513 625.52 L 919.576 625.52 L 901.544 594.264 L 883.513 625.52 L 883.513 625.52 L 883.513 625.52 L 883.513 625.52 L 883.513 625.52 L 883.513 625.52 L 883.513 625.52 L 883.513 625.52 Z  M 811.377 661.947 L 829.408 630.718 L 793.336 630.718 L 811.377 661.947 L 811.377 661.947 L 811.377 661.947 L 811.377 661.947 L 811.377 661.947 L 811.377 661.947 L 811.377 661.947 Z  M 748.252 630.718 L 766.284 661.947 L 784.324 630.718 L 748.252 630.718 L 748.252 630.718 L 748.252 630.718 L 748.252 630.718 L 748.252 630.718 L 748.252 630.718 Z  M 770.798 664.564 L 806.862 664.564 L 788.83 633.325 L 770.798 664.564 L 770.798 664.564 L 770.798 664.564 L 770.798 664.564 L 770.798 664.564 Z  M 924.091 622.912 L 942.123 591.665 L 906.05 591.665 L 924.091 622.912 L 924.091 622.912 L 924.091 622.912 L 924.091 622.912 Z  M 788.83 701 L 806.862 669.761 L 770.798 669.761 L 788.83 701 L 788.83 701 L 788.83 701 Z  M 946.628 583.86 L 964.66 552.63 L 928.597 552.63 L 946.628 583.86 L 946.628 583.86 Z  M 964.66 474.534 L 928.597 474.534 L 946.628 505.772 L 964.66 474.534 Z " fill-rule="evenodd" fill="rgb(185,28,28)"/></g></svg>