<?xml version="1.0" encoding="UTF-8" standalone="no"?><!-- Generator: Gravit.io --><svg xmlns="http://www.w3.org/2000/svg" xmlns:xlink="http://www.w3.org/1999/xlink" style="isolation:isolate" viewBox="1416 752.154 840 642.846" width="840pt" height="642.846pt"><defs><clipPath id="_clipPath_3QkVtvxmjMleqtkHLuleDyWJeMM3TYrU"><rect x="1416" y="752.154" width="840" height="642.846"/></clipPath></defs><g clip-path="url(#_clipPath_3QkVtvxmjMleqtkHLuleDyWJeMM3TYrU)"><g><g><linearGradient id="_lgradient_2" x1="0.24761904761904768" y1="0.936221084717267" x2="0.9857142857142855" y2="0.12420660233710823" gradientTransform="matrix(301.337,0,0,46.445,1685.331,1052.512)" gradientUnits="userSpaceOnUse"><stop offset="0%" stop-opacity="1" style="stop-color:rgb(242,65,65)"/><stop offset="100%" stop-opacity="1" style="stop-color:rgb(225,55,166)"/></linearGradient><path d=" M 1969.224 1053.086 C 1927.101 1065.72 1883.522 1071.862 1836 1071.862 C 1788.478 1071.862 1744.899 1065.72 1702.774 1053.086 C 1695.606 1050.938 1688.057 1055.004 1685.906 1062.172 C 1683.756 1069.338 1687.824 1076.891 1694.99 1079.041 C 1739.676 1092.443 1785.802 1098.957 1836 1098.957 C 1886.198 1098.957 1932.322 1092.443 1977.008 1079.041 C 1984.176 1076.891 1988.244 1069.338 1986.093 1062.17 C 1983.941 1055.002 1976.379 1050.938 1969.224 1053.086 Z " fill="url(#_lgradient_2)"/><linearGradient id="_lgradient_3" x1="0.24761904761904768" y1="0.936221084717267" x2="0.9857142857142855" y2="0.12420660233710823" gradientTransform="matrix(840,0,0,642.846,1416,752.154)" gradientUnits="userSpaceOnUse"><stop offset="0%" stop-opacity="1" style="stop-color:rgb(242,65,65)"/><stop offset="100%" stop-opacity="1" style="stop-color:rgb(225,55,166)"/></linearGradient><path d=" M 2242.452 902.975 C 2179.184 902.975 2147.618 867.634 2114.201 830.215 C 2105.485 820.454 2096.472 810.364 2086.882 800.921 C 2054.938 769.475 2013.621 752.154 1970.541 752.154 C 1939.376 752.154 1909.076 760.975 1882.915 777.665 C 1864.307 789.535 1848.383 804.968 1836 822.994 C 1823.619 804.966 1807.693 789.535 1789.085 777.665 C 1762.925 760.975 1732.624 752.154 1701.459 752.154 C 1658.377 752.154 1617.06 769.473 1585.118 800.921 C 1575.528 810.362 1566.515 820.454 1557.799 830.215 C 1524.382 867.634 1492.816 902.975 1429.548 902.975 C 1422.064 902.975 1416 909.041 1416 916.523 C 1416 924.006 1422.064 930.072 1429.548 930.072 L 1540.629 930.072 L 1614.71 1093.538 L 1614.71 1288.999 C 1606.349 1303.012 1587.613 1336.426 1587.613 1354.355 C 1587.613 1376.767 1605.847 1395 1628.258 1395 C 1650.669 1395 1668.903 1376.767 1668.903 1354.355 C 1668.903 1336.428 1650.167 1303.014 1641.806 1288.999 L 1641.806 1093.538 L 1715.887 930.074 L 1956.113 930.074 L 2031.402 1096.204 C 2033.597 1101.049 2038.424 1104.159 2043.742 1104.159 C 2049.06 1104.159 2053.887 1101.047 2056.082 1096.204 L 2131.371 930.074 L 2242.452 930.074 C 2249.936 930.074 2256 924.007 2256 916.525 C 2256 909.043 2249.936 902.975 2242.452 902.975 Z  M 1628.258 1367.903 C 1620.787 1367.903 1614.71 1361.826 1614.71 1354.355 C 1614.71 1348.93 1620.657 1334.972 1628.258 1320.361 C 1635.86 1334.972 1641.806 1348.93 1641.806 1354.355 C 1641.806 1361.825 1635.73 1367.903 1628.258 1367.903 Z  M 1628.258 1057.79 L 1570.378 930.074 L 1686.139 930.074 L 1628.258 1057.79 Z  M 2043.742 1057.79 L 1985.861 930.074 L 2101.622 930.074 L 2043.742 1057.79 Z  M 2122.987 902.975 C 2122.986 902.975 2122.984 902.975 2122.982 902.975 L 1707.503 902.975 C 1707.502 902.975 1707.5 902.975 1707.498 902.975 L 1520.474 902.975 C 1542.782 887.709 1560.541 867.825 1578.01 848.265 C 1586.442 838.824 1595.16 829.062 1604.129 820.232 C 1630.971 793.807 1665.538 779.253 1701.461 779.253 C 1753.918 779.253 1800.805 808.57 1823.823 855.763 C 1826.093 860.419 1830.821 863.372 1836 863.372 C 1841.179 863.372 1845.907 860.419 1848.177 855.763 C 1871.195 808.57 1918.082 779.253 1970.539 779.253 C 2006.462 779.253 2041.029 793.806 2067.871 820.232 C 2076.84 829.062 2085.558 838.824 2093.99 848.265 C 2111.459 867.825 2129.218 887.709 2151.526 902.975 L 2122.987 902.975 Z " fill="url(#_lgradient_3)"/></g></g></g></svg>