<?xml version="1.0" encoding="UTF-8" standalone="no"?><!-- Generator: Gravit.io --><svg xmlns="http://www.w3.org/2000/svg" xmlns:xlink="http://www.w3.org/1999/xlink" style="isolation:isolate" viewBox="807 393 256 256" width="256pt" height="256pt"><defs><clipPath id="_clipPath_bIvMdeVMnAPduoiRaqUWpPwIjUuf8p4n"><rect x="807" y="393" width="256" height="256"/></clipPath></defs><g clip-path="url(#_clipPath_bIvMdeVMnAPduoiRaqUWpPwIjUuf8p4n)"><circle vector-effect="non-scaling-stroke" cx="935" cy="521" r="128" fill="rgb(21,21,21)"/><clipPath id="_clipPath_NkvAyznorRLQNzVmUD3NdsiJLTaSx5qN"><circle vector-effect="non-scaling-stroke" cx="935" cy="521" r="128" fill="rgb(21,21,21)"/></clipPath><g clip-path="url(#_clipPath_NkvAyznorRLQNzVmUD3NdsiJLTaSx5qN)"><g><g><linearGradient id="_lgradient_0" x1="0.3077210780026498" y1="0.7547481420313792" x2="0.8158069212377469" y2="0.21965317919075156" gradientTransform="matrix(235.063,0,0,136.189,817.468,452.906)" gradientUnits="userSpaceOnUse"><stop offset="0%" stop-opacity="1" style="stop-color:rgb(227,0,64)"/><stop offset="100%" stop-opacity="1" style="stop-color:rgb(227,6,117)"/></linearGradient><path d=" M 925.478 470.241 C 924.67 471.124 922.054 460.737 922.054 460.737 C 922.054 460.737 923.526 485.973 918.047 488.624 C 911.789 491.639 883.549 481.007 883.446 472.715 C 883.354 464.437 895.685 453.127 895.811 452.908 C 895.937 452.689 813.672 466.472 817.605 542.042 C 818.834 540.627 871.264 489.397 872.626 570.08 C 874.482 567.569 913.59 512.396 934.698 589.094 C 935.184 583.662 950.396 509.374 992.971 570.631 C 992.666 566.729 990.177 491.522 1052.38 542.741 C 1052.395 538.815 1059.62 478.743 972.417 452.911 C 975.906 455.302 987.185 461.668 982.303 470.242 C 977.414 478.824 969.579 490.482 950.381 489.12 C 944.603 488.418 945.467 463.59 945.643 460.738 C 945.643 460.738 943.394 470.946 942.786 470.242 C 940.701 467.923 928.852 466.503 925.478 470.241 Z " fill="url(#_lgradient_0)"/></g></g></g></g></svg>