<?xml version="1.0" encoding="UTF-8" standalone="no"?><!-- Generator: Gravit.io --><svg xmlns="http://www.w3.org/2000/svg" xmlns:xlink="http://www.w3.org/1999/xlink" style="isolation:isolate" viewBox="-127 452 384 384" width="384pt" height="384pt"><defs><clipPath id="_clipPath_Iz4qDjBolbwr3hdyxHgSPXJX2xf8QoZB"><rect x="-127" y="452" width="384" height="384"/></clipPath></defs><g clip-path="url(#_clipPath_Iz4qDjBolbwr3hdyxHgSPXJX2xf8QoZB)"><circle vector-effect="non-scaling-stroke" cx="1" cy="580" r="128" fill="rgb(21,21,21)"/><clipPath id="_clipPath_1tiirhkaXdh7HoPOabt3ezGRja0hymze"><circle vector-effect="non-scaling-stroke" cx="1" cy="580" r="128" fill="rgb(21,21,21)"/></clipPath><g clip-path="url(#_clipPath_1tiirhkaXdh7HoPOabt3ezGRja0hymze)"><g><g><linearGradient id="_lgradient_1" x1="0.3077210780026498" y1="0.7547481420313792" x2="0.8158069212377469" y2="0.21965317919075156" gradientTransform="matrix(235.063,0,0,136.189,-116.532,511.906)" gradientUnits="userSpaceOnUse"><stop offset="0%" stop-opacity="1" style="stop-color:rgb(227,0,64)"/><stop offset="100%" stop-opacity="1" style="stop-color:rgb(227,6,117)"/></linearGradient><path d=" M -8.522 529.241 C -9.33 530.124 -11.946 519.737 -11.946 519.737 C -11.946 519.737 -10.474 544.973 -15.953 547.624 C -22.211 550.639 -50.451 540.007 -50.554 531.715 C -50.646 523.437 -38.315 512.127 -38.189 511.908 C -38.063 511.689 -120.328 525.472 -116.395 601.042 C -115.166 599.627 -62.736 548.397 -61.374 629.08 C -59.518 626.569 -20.41 571.396 0.698 648.094 C 1.184 642.662 16.396 568.374 58.971 629.631 C 58.666 625.729 56.177 550.522 118.38 601.741 C 118.395 597.815 125.62 537.743 38.417 511.911 C 41.906 514.302 53.185 520.668 48.303 529.242 C 43.414 537.824 35.579 549.482 16.381 548.12 C 10.603 547.418 11.467 522.59 11.643 519.738 C 11.643 519.738 9.394 529.946 8.786 529.242 C 6.701 526.923 -5.148 525.503 -8.522 529.241 Z " fill="url(#_lgradient_1)"/></g></g></g><g><path d=" M 129 836 C 199.938 836 257 778.938 257 708 C 257 637.062 199.938 580 129 580 C 58.062 580 1 637.062 1 708 C 1 778.938 58.062 836 129 836 Z " fill="rgb(39,117,202)"/><path d=" M 164.2 728.262 C 164.2 709.6 153 703.2 130.6 700.525 C 114.6 698.387 111.4 694.125 111.4 686.662 C 111.4 679.2 116.738 674.4 127.4 674.4 C 137 674.4 142.338 677.6 145 685.6 C 145.538 687.2 147.138 688.262 148.738 688.262 L 157.275 688.262 C 159.413 688.262 161.013 686.662 161.013 684.525 L 161.013 683.987 C 158.875 672.25 149.275 663.187 137.013 662.125 L 137.013 649.325 C 137.013 647.187 135.413 645.587 132.75 645.062 L 124.75 645.062 C 122.613 645.062 121.013 646.662 120.488 649.325 L 120.488 661.587 C 104.488 663.725 94.35 674.387 94.35 687.725 C 94.35 705.325 105.013 712.262 127.413 714.925 C 142.35 717.587 147.15 720.787 147.15 729.325 C 147.15 737.862 139.688 743.725 129.55 743.725 C 115.688 743.725 110.888 737.862 109.288 729.862 C 108.75 727.725 107.15 726.662 105.55 726.662 L 96.488 726.662 C 94.35 726.662 92.75 728.262 92.75 730.4 L 92.75 730.938 C 94.888 744.275 103.413 753.875 121.013 756.538 L 121.013 769.338 C 121.013 771.475 122.613 773.075 125.275 773.6 L 133.275 773.6 C 135.413 773.6 137.013 772 137.538 769.338 L 137.538 756.538 C 153.525 753.862 164.2 742.662 164.2 728.262 L 164.2 728.262 Z " fill="rgb(255,255,255)"/><path d=" M 101.8 784.262 C 60.2 769.325 38.862 722.925 54.338 681.862 C 62.338 659.462 79.938 642.4 101.8 634.4 C 103.938 633.338 105 631.738 105 629.062 L 105 621.6 C 105 619.462 103.938 617.862 101.8 617.338 C 101.262 617.338 100.2 617.338 99.662 617.875 C 49 633.875 21.262 687.738 37.262 738.413 C 46.862 768.275 69.8 791.213 99.662 800.813 C 101.8 801.875 103.925 800.813 104.462 798.675 C 105 798.138 105 797.613 105 796.538 L 105 789.075 C 105 787.462 103.4 785.338 101.8 784.262 Z  M 158.325 617.862 C 156.187 616.8 154.062 617.862 153.525 620 C 152.987 620.538 152.987 621.062 152.987 622.138 L 152.987 629.6 C 152.987 631.738 154.587 633.862 156.187 634.938 C 197.787 649.875 219.125 696.275 203.65 737.338 C 195.65 759.738 178.05 776.8 156.187 784.8 C 154.05 785.862 152.987 787.462 152.987 790.138 L 152.987 797.6 C 152.987 799.738 154.05 801.338 156.187 801.862 C 156.725 801.862 157.787 801.862 158.325 801.325 C 208.987 785.325 236.725 731.462 220.725 680.787 C 211.125 650.4 187.662 627.462 158.325 617.862 L 158.325 617.862 Z " fill="rgb(255,255,255)"/></g></g></svg>