<?xml version="1.0" encoding="UTF-8" standalone="no"?><!-- Generator: Gravit.io --><svg xmlns="http://www.w3.org/2000/svg" xmlns:xlink="http://www.w3.org/1999/xlink" style="isolation:isolate" viewBox="-127 452 384 384" width="384pt" height="384pt"><defs><clipPath id="_clipPath_CbWs8MFpW8RVqSr3LQMlwv7UxcpjcGzy"><rect x="-127" y="452" width="384" height="384"/></clipPath></defs><g clip-path="url(#_clipPath_CbWs8MFpW8RVqSr3LQMlwv7UxcpjcGzy)"><circle vector-effect="non-scaling-stroke" cx="1" cy="580" r="128" fill="rgb(21,21,21)"/><clipPath id="_clipPath_qJoAkQSLAxCR9NxQauKAE5gAeYqKrpm0"><circle vector-effect="non-scaling-stroke" cx="1" cy="580" r="128" fill="rgb(21,21,21)"/></clipPath><g clip-path="url(#_clipPath_qJoAkQSLAxCR9NxQauKAE5gAeYqKrpm0)"><g><g><linearGradient id="_lgradient_2" x1="0.3077210780026498" y1="0.7547481420313792" x2="0.8158069212377469" y2="0.21965317919075156" gradientTransform="matrix(235.063,0,0,136.189,-116.532,511.906)" gradientUnits="userSpaceOnUse"><stop offset="0%" stop-opacity="1" style="stop-color:rgb(227,0,64)"/><stop offset="100%" stop-opacity="1" style="stop-color:rgb(227,6,117)"/></linearGradient><path d=" M -8.522 529.241 C -9.33 530.124 -11.946 519.737 -11.946 519.737 C -11.946 519.737 -10.474 544.973 -15.953 547.624 C -22.211 550.639 -50.451 540.007 -50.554 531.715 C -50.646 523.437 -38.315 512.127 -38.189 511.908 C -38.063 511.689 -120.328 525.472 -116.395 601.042 C -115.166 599.627 -62.736 548.397 -61.374 629.08 C -59.518 626.569 -20.41 571.396 0.698 648.094 C 1.184 642.662 16.396 568.374 58.971 629.631 C 58.666 625.729 56.177 550.522 118.38 601.741 C 118.395 597.815 125.62 537.743 38.417 511.911 C 41.906 514.302 53.185 520.668 48.303 529.242 C 43.414 537.824 35.579 549.482 16.381 548.12 C 10.603 547.418 11.467 522.59 11.643 519.738 C 11.643 519.738 9.394 529.946 8.786 529.242 C 6.701 526.923 -5.148 525.503 -8.522 529.241 Z " fill="url(#_lgradient_2)"/></g></g></g><g><g><circle vector-effect="non-scaling-stroke" cx="129" cy="708" r="128" fill="rgb(19,181,236)"/><g><path d=" M 138.6 683.2 L 167.4 666.4 L 167.4 700 L 138.6 683.2 Z  M 167.4 755.2 L 129 777.6 L 90.6 755.2 L 90.6 716 L 129 738.4 L 167.4 716 L 167.4 755.2 Z  M 90.6 666.4 L 119.4 683.2 L 90.6 700 L 90.6 666.4 Z  M 133.8 691.2 L 162.6 708 L 133.8 724.8 L 133.8 691.2 Z  M 124.2 724.8 L 95.4 708 L 124.2 691.2 L 124.2 724.8 Z  M 162.6 658.4 L 129 677.6 L 95.4 658.4 L 129 638.4 L 162.6 658.4 Z  M 81 655.2 L 81 760 L 129 787.2 L 177 760 L 177 655.2 L 129 628 L 81 655.2 Z " fill-rule="evenodd" fill="rgb(255,255,255)"/></g></g></g></g></svg>