<?xml version="1.0" encoding="UTF-8" standalone="no"?><!-- Generator: Gravit.io --><svg xmlns="http://www.w3.org/2000/svg" xmlns:xlink="http://www.w3.org/1999/xlink" style="isolation:isolate" viewBox="-127 452 384 384" width="384pt" height="384pt"><defs><clipPath id="_clipPath_h6c955r83LpeBtejEGgLNuzXKifhS8Cu"><rect x="-127" y="452" width="384" height="384"/></clipPath></defs><g clip-path="url(#_clipPath_h6c955r83LpeBtejEGgLNuzXKifhS8Cu)"><circle vector-effect="non-scaling-stroke" cx="1" cy="580" r="128" fill="rgb(21,21,21)"/><clipPath id="_clipPath_uMDrb1IcyVcNkJvWyn5viJzHfekYr8t2"><circle vector-effect="non-scaling-stroke" cx="1" cy="580" r="128" fill="rgb(21,21,21)"/></clipPath><g clip-path="url(#_clipPath_uMDrb1IcyVcNkJvWyn5viJzHfekYr8t2)"><g><g><linearGradient id="_lgradient_0" x1="0.3077210780026498" y1="0.7547481420313792" x2="0.8158069212377469" y2="0.21965317919075156" gradientTransform="matrix(235.063,0,0,136.189,-116.532,511.906)" gradientUnits="userSpaceOnUse"><stop offset="0%" stop-opacity="1" style="stop-color:rgb(227,0,64)"/><stop offset="100%" stop-opacity="1" style="stop-color:rgb(227,6,117)"/></linearGradient><path d=" M -8.522 529.241 C -9.33 530.124 -11.946 519.737 -11.946 519.737 C -11.946 519.737 -10.474 544.973 -15.953 547.624 C -22.211 550.639 -50.451 540.007 -50.554 531.715 C -50.646 523.437 -38.315 512.127 -38.189 511.908 C -38.063 511.689 -120.328 525.472 -116.395 601.042 C -115.166 599.627 -62.736 548.397 -61.374 629.08 C -59.518 626.569 -20.41 571.396 0.698 648.094 C 1.184 642.662 16.396 568.374 58.971 629.631 C 58.666 625.729 56.177 550.522 118.38 601.741 C 118.395 597.815 125.62 537.743 38.417 511.911 C 41.906 514.302 53.185 520.668 48.303 529.242 C 43.414 537.824 35.579 549.482 16.381 548.12 C 10.603 547.418 11.467 522.59 11.643 519.738 C 11.643 519.738 9.394 529.946 8.786 529.242 C 6.701 526.923 -5.148 525.503 -8.522 529.241 Z " fill="url(#_lgradient_0)"/></g></g></g><g><path d=" M 129 836 C 199.693 836 257 778.693 257 708 C 257 637.307 199.693 580 129 580 C 58.307 580 1 637.307 1 708 C 1 778.693 58.307 836 129 836 Z " fill="rgb(43,109,239)"/><path d=" M 182.339 644 L 155.704 659.357 L 155.677 659.357 L 155.677 690.075 L 155.584 690.088 L 75.669 644 L 49.013 659.36 L 49 659.355 L 49 754.853 L 75.653 770.221 L 75.669 770.099 L 75.669 770.213 L 102.333 754.853 L 102.333 720.827 L 128.941 736.16 L 128.957 736.192 L 128.979 736.179 L 155.683 720.893 L 155.683 754.867 L 182.224 770.163 L 182.224 770.243 L 182.291 770.203 L 182.339 770.229 L 182.376 770.155 L 208.883 754.883 L 208.883 659.44 L 209.003 659.371 L 182.339 644 Z " fill-rule="evenodd" fill="rgb(255,255,255)"/></g></g></svg>