<?xml version="1.0" encoding="UTF-8" standalone="no"?><!-- Generator: Gravit.io --><svg xmlns="http://www.w3.org/2000/svg" xmlns:xlink="http://www.w3.org/1999/xlink" style="isolation:isolate" viewBox="460 350.888 2725.563 1579.112" width="2725.563pt" height="1579.112pt"><defs><clipPath id="_clipPath_YYVU6u22xn6Ar3MSO2edbVNByEKQ0Y7U"><rect x="460" y="350.888" width="2725.563" height="1579.112"/></clipPath></defs><g clip-path="url(#_clipPath_YYVU6u22xn6Ar3MSO2edbVNByEKQ0Y7U)"><g><g><linearGradient id="_lgradient_1" x1="0.3077210780026498" y1="0.7547481420313792" x2="0.8158069212377469" y2="0.21965317919075156" gradientTransform="matrix(2725.563,0,0,1579.112,460,350.888)" gradientUnits="userSpaceOnUse"><stop offset="0%" stop-opacity="1" style="stop-color:rgb(227,0,64)"/><stop offset="100%" stop-opacity="1" style="stop-color:rgb(227,6,117)"/></linearGradient><path d=" M 1712.372 551.893 C 1703.003 562.136 1672.667 441.694 1672.667 441.694 C 1672.667 441.694 1689.744 734.305 1626.215 765.049 C 1553.653 800.004 1226.203 676.721 1225.008 580.583 C 1223.944 484.59 1366.928 353.453 1368.385 350.917 C 1369.842 348.382 415.978 508.195 461.585 1384.425 C 475.835 1368.018 1083.758 774.01 1099.553 1709.529 C 1121.074 1680.417 1574.532 1040.685 1819.278 1930 C 1824.917 1867.01 2001.297 1005.642 2494.956 1715.911 C 2491.415 1670.669 2462.565 798.649 3183.806 1392.527 C 3183.981 1347.007 3267.748 650.479 2256.636 350.947 C 2297.084 378.675 2427.872 452.491 2371.265 551.907 C 2314.569 651.411 2223.72 786.585 2001.122 770.79 C 1934.126 762.659 1944.15 474.769 1946.19 441.708 C 1946.19 441.708 1920.108 560.067 1913.056 551.907 C 1888.883 525.01 1751.495 508.545 1712.372 551.893 Z " fill="url(#_lgradient_1)"/></g></g></g></svg>